<svg xmlns="http://www.w3.org/2000/svg" xmlns:xlink="http://www.w3.org/1999/xlink" viewBox="0 0 200 200"><defs><style>.a4f010ed-e950-4249-bb26-d16310f44eb6,.f01705ef-0c7f-46f6-bdfd-58c4187cf0d4{fill:none;}.b003289e-3a91-4987-91c9-989e1d1ce62d{isolation:isolate;}.ab1101ac-e170-4f29-8ee8-d8a08cca324b{opacity:0.3;mix-blend-mode:multiply;}.bb9ec9ca-133a-4104-b7e0-e3d3ea2c8174{clip-path:url(#a4d070d1-abad-4324-b1de-747b0b8d08e6);}.a4e1ce93-5869-485a-93ca-1938f6068183{clip-path:url(#b16557d7-fa92-4018-ac60-fdd6096ddd01);}.b18221d9-2ff5-4008-abd9-28c08d9e4800,.b45c6798-c8af-4032-8c95-d85a160fc1e5,.bd07b877-63df-43d2-b41c-71e1e7b12750,.f2d4b76f-d0bf-498b-8cac-9691aaf2ef0e,.f6e53696-b7c6-483d-8e5b-d64183e99e1e,.fde5d482-6441-49c9-9fcc-38be23752e59,.feea09f6-363b-4441-b018-31582b93a784{fill:#fff;}.f02b947e-87fa-45d1-b1d3-91c61b723db7{fill:url(#ecffabea-4723-40b8-9364-718c24401fa0);}.a4f010ed-e950-4249-bb26-d16310f44eb6{stroke:#443f35;stroke-miterlimit:10;stroke-width:2px;}.feea09f6-363b-4441-b018-31582b93a784{font-size:16.94px;}.b18221d9-2ff5-4008-abd9-28c08d9e4800,.b45c6798-c8af-4032-8c95-d85a160fc1e5,.bd07b877-63df-43d2-b41c-71e1e7b12750,.f6e53696-b7c6-483d-8e5b-d64183e99e1e,.fde5d482-6441-49c9-9fcc-38be23752e59,.feea09f6-363b-4441-b018-31582b93a784{font-family:BebasNeue-Regular, Bebas Neue;}.ee6fe0d0-f9a6-4371-ab91-12c532a81513{letter-spacing:0em;}.b07a76bd-18cc-4658-bf1f-b7197fb893cc{letter-spacing:0em;}.b40fa708-5173-4ade-92a3-1ad90fd5353b{letter-spacing:-0.05em;}.e9ddb17a-29cb-480e-bd49-511e5bb8cfb4{letter-spacing:0em;}.b0859e3c-1972-4ebd-bc48-1fe55a143ae3{letter-spacing:0em;}.f6e53696-b7c6-483d-8e5b-d64183e99e1e{font-size:23.45px;}.bd07b877-63df-43d2-b41c-71e1e7b12750{font-size:24.8px;}.be7a85a3-6599-488e-9417-483119852eeb{letter-spacing:0em;}.b45c6798-c8af-4032-8c95-d85a160fc1e5{font-size:32.97px;}.b0acb156-51f3-4130-b1bc-d8e855da8f26{letter-spacing:-0.02em;}.e361657c-125e-4c66-b702-ae67671eea62{letter-spacing:0em;}.fde5d482-6441-49c9-9fcc-38be23752e59{font-size:35.1px;}.a3885db3-4507-4dd8-b7d6-48a33802354b{letter-spacing:0em;}.bc558c86-c6c1-4f9f-9473-9e49f1fad39f{letter-spacing:0em;}.a140cc67-92c5-45fe-a9fe-b879a06860d2{letter-spacing:0em;}.b18221d9-2ff5-4008-abd9-28c08d9e4800{font-size:66.66px;}</style><clipPath id="a4d070d1-abad-4324-b1de-747b0b8d08e6"><circle class="f01705ef-0c7f-46f6-bdfd-58c4187cf0d4" cx="102.36" cy="-120.64" r="100"/></clipPath><clipPath id="b16557d7-fa92-4018-ac60-fdd6096ddd01"><circle class="f01705ef-0c7f-46f6-bdfd-58c4187cf0d4" cx="99.75" cy="-123.25" r="100"/></clipPath><radialGradient id="ecffabea-4723-40b8-9364-718c24401fa0" cx="110.89" cy="106.73" r="98.5" gradientTransform="translate(-12.58 -8.35) scale(1.02)" gradientUnits="userSpaceOnUse"><stop offset="0.58" stop-color="#03a09a"/><stop offset="1" stop-color="#006965"/></radialGradient></defs><g class="b003289e-3a91-4987-91c9-989e1d1ce62d"><g id="bea80285-ddc7-4f73-8f04-4f90f5ee4c1e" data-name="Capa 1"><g class="ab1101ac-e170-4f29-8ee8-d8a08cca324b"><g class="bb9ec9ca-133a-4104-b7e0-e3d3ea2c8174"><path d="M-186.67-184.62a3,3,0,0,0,2.44-1.58l-2.4,0c0,.52,0,1,0,1.56m-100.42,7.55c-.29.95-1.91,1.17-.89,2.91.88-.78,2.3-.78,2.17-2.84l-1.28-.07m90.74-42.27v0l0,0Zm-106.94,48.8-5.32,2.22c1.7.24,3.43.47,5.32-2.22m65.83-40.27c.81-.05,1.65.45,2.46.45a1.44,1.44,0,0,0-.54,1.8c2.49,0,6.35,4.61,10.22.91,2-2,4.84.45,7.19-2.48-2.93.3-5.46-2.73-7.84.62a11.37,11.37,0,0,0-7.73-1.5h0c0-.89,1.35-2.34-.6-2.48-2.51,1.43-5.56.57-7.84,3.05,1.62.83,3.12-.26,4.67-.36M-257.14-169c-.52,1.33,1.3,2.12,1.75,3.44l.71-.84c-.92-1.92-1.59-4.83-2.46-2.6m156.56-31.17c-.21-.15-.46-.1-.63-.32,3,1,4.22,1.26,4-1.64-.93-3.19,7.06-5.32,1.84-9.45,3.52,1.3,3.1-2.8.4-3.38,1.43-1.09,3.58-.9,4.7-3.21s3.84-.79,5.3-2.86c-4.47-.94-11,1.92-16.87-2.55-8.55-1.24-4.92-1-17.33-1-2.12.31-4.2,1.12-6.38.84-4.36-1.14-8.52,2.84-12.92.84-4,2.1-8.15.19-12.19,1-1.09,1.39-2.58.2-3.77,1a8.19,8.19,0,0,0-1.4,0,5.53,5.53,0,0,0,1.27-1.21c-.84-1.3-2.35.07-3.18-1.29-12.25-.38-21.95-.86-28.27,1.4-2.52-.76-5,.2-7.5.32-1,0-2.73-.14-2.81,2.3l0,0h0l-1.33-1c-2.06.65-4.3-.47-6.3,1.24-3.29,2.8,2,2.22,3.41,2.59a1.24,1.24,0,0,0-1,.43l.21.81c1.52,2.52,5.26,2.12,7.7,1.49-1.6,1.06-1.69,2.24-1,3.13a8.27,8.27,0,0,1-2.91-1.18c-.73,1.41-1.95-.27-2.74.73l1.92,3.08c-3.66-.29-6.29-.1-6.37,4.65-.35,1.63-1.57,3.25,0,4.89.68.5,1.73.4,1.9,1.8-1.36.69-.85-1.66-1.77-1.62-1.72-1.28-3.79-2-4.07-.34-.49,2.92-2.05,2.11-3.43,2.18-6.62-1.47-10.92,1.17-16.34.11,5.14-.26,10.23-2.07,15.41-.66,1.38-3.73-1.21-2.88-3.22-4.35-1.43-1.52-.89-7.14-4.58-3.9-1.5,1.32-3,.45-4.41.86-9.7-2.74,0-1.81-19.36-3.46-.42,2-1.61,3.43-2.48,5.08.87.13,1.85-.25,2.52.86,2.46,1.32,5.87-3,10.27,1.74a6,6,0,0,0,1.64.29c-1.2.07-2.7.41-1.75,1.35a3.46,3.46,0,0,0-1.24,0c-2.9-.88-5.82-1.6-8.82-1.1-3.36-1-6.76-.7-10.15-.8-21.66,2.46-45.73-7.13-47.17,2.72-.93,1.65-2.74,0-3.9,1.78,2,1.12,4.66,3,4.66,3l0,.15c-.7,0-1.37-.65-2.08-.12-1.35,1.27-3.43.41-4.47,2.56,1.65.81,3.22,2.07,5.11,1.68.6.93,1.49.72,2.41,1-1.19.06-2,.9-3,1.2-3,2.57-1.64,4.48.57,6.26,6,5.22,4.7,2.38,7.77,3.67-2.65,3-6.1,2.12-5.88,5.27,5,2.72,15.49-8.36,15.49-8.36,2.14,2.16,3.51.17,5.19-.45,0-.1,0-.17,0-.26,1.08.83,1.46.3,1.68-.54a.63.63,0,0,0,.6,0c1.52.09,2.88,1,4.35,1.37a23.25,23.25,0,0,1,12.07,4.6c.35.82,1,.3,1.52.21,2.22,5.55,2.17,2,7.14,9,1.31,1.86,1.8,4.62,3.89,5.63,2.84,1.37,3.56,4.25,3.22,7.83-2.34,15.45,6.48,16.83,10.85,25.09,2,4.06,3.67,8.44,6.53,11.74a6.18,6.18,0,0,0,2.86,3.51c3.16-.54,1.86-1.08-1.79-8.82.94.26,7.79,10.19,8.23,12.48,1.24,6.39,11.14,10,12.44,10.35,6.93-.54,7.27,3.05,9.6,3.69,1.8.62,3.63,1.15,5,2.94,1.45,3.58,8.29,11.34,11.41,7.36,1.3-1.65,3.48,4.44.59,9.24-1.54,2.54-3.29,4.91-4.29,8,2.64,34.88,24.23,21.76,14.35,50.11-.29,3.88-.05,7.82-1,11.61-2,3.76-1.79,8.4-3,12.49a70.84,70.84,0,0,1-2.06,13.93c.36,10,4.55,10.15,8.5,11.69,3,3,5.27.15,7.62-1.76-.87-2.17-7.37-3-2.37-9.39.3-.37.64-.7.91-1.1,2.23-3.33-2.14-3.88.06-5.74,1.73-1.16,2.49-3.43,3.64-5.27a2.48,2.48,0,0,0,0-1.05c1.57-2.16,2.69-5,5.44-5.27,3-.33,6.35-3.51,4.66-7.36-.19-.52-.41.12-.22-.35s.36,0,.48,0c1.12.38,1.73.9,3,.35,2.43-1.44,3.36-4.89,5.47-6.75,1.15-1.84,1.93-4,2.92-5.92,1.67-12.19,8.81-5.92,11.65-12.89a34.87,34.87,0,0,0,3.13-11.11c-.32-6.12,5.3-9.48,5.78-14,.35-3.45-.38-6.1-3.21-7.22C-129-70.48-134.1-64-138-75.13c-1.26-5.85-4.66-7.23-9.1-6.89-6.58-3.06-5.58-9.39-10.81-8.28-3.37,1-8.65-2.19-9.35-2-.37-.29-.48,1.71-1,.21-1.71-2.51-2.91.85-4.41.67-2.35-.21-2.51,4-4.76,3.93-4.76-1.19-6.39,2.31-8.16-3.63,1.15-16.51-7.6-3.06-6-13.44.54-1.39,1.83-2.6.81-4.41s-2.42-1.47-3.8-1.14A3.43,3.43,0,0,0-196.2-109c-3.48,5-5.81,7-9.34-.86-.51-4,.13-5,.23-6.69-.56-3.11.79-4.6,2.73-6,2.23-1.61,4.34,0,6.49-.23,2.93-3.06,6-2,9.06-.46,1.72,2.29,1.53,6.41,4.41,7.59,6.17,0-4.82-10.28,5.32-16.38,3-1.68,2.78-4.74,2.46-7.86a1.14,1.14,0,0,0,.15.16c.15-.33.31-.66.46-1,0-.25,0-.5,0-.75,2-.91,3.76-3.93,6.41-4.48.85-.51,1.05-1.65,1.49-2.56,1-2.09,4-3.12,4.2-2.73,1.77,3.46,3.27.86,4.85,0a12.51,12.51,0,0,0,3.7-2c.65-.68,1.52-1.36.95-2.61-.78-1.69-1.88-.17-2.83-.21-.29,0-.58,0-.87,0-.45-.56-.88-.67-1.38-.37-2.85-1.72,1.56-4.47-3.78-5.14a16.6,16.6,0,0,1,2.94-.5,1.69,1.69,0,0,0-.34.36c1-.36,2.06,2.09,3.15.1a4,4,0,0,1-1.07-.43c5.72.61,3,.41,8.28-1.9-4.28,7.66-3.06,5.45.5,6.54a5.16,5.16,0,0,0,3.46,1.73c2.54.55,3.33-.55,2.57-3.65-1.31-5.36-3.25-.84-4.7-5.83,5.39-5.25-6.69-6.87-7.95-12.3-7.22-9.59-5.16,0-9.73-2.06-.95-.5-.92-1.75-1.25-2.74-.38-1.23-1.45-.67-2-1.32-2.25-1.12-4.09-4.44-10-2.2-2.27.86-.81,4.94-1.52,7.43a1.16,1.16,0,0,0,.05.4c1.35,2,2,3.9-.35,5.54a3.54,3.54,0,0,0-1.23,2.69c-.1,1,1.06,2.72-.59,2.9-1.24.14-1.72-1.42-1.95-2.78-.45-2.55-1.76-3.58-3.65-3.69-3.34-.14-6.16-2.84-9.46-3.19a3,3,0,0,1-2.88-1.82c-6.5-6.33,7.73-7.3,9-12.31,0-.12-.05-.22-.08-.32.92,1.59-1.37,2.2-1,3.61a5.69,5.69,0,0,0,4.59-.05,3.93,3.93,0,0,0,3.84.4c.64-2.38-1.39-1.73-1.91-2.79-1.25-.91-2.91-.45-4.06-1.71,3.88.34,7.34-1.66,4.84-7,3,.47,6.06.26,8.78,2.26-.87-.09-1.79-.3-1.83,1.7,1.27.66,2.23.58,2.51-1.19.64.44,1.73.18,1.91,1.14.25,1.25-.87,1.68-1.46,2.34-1.37,1.53-3.91.1-4.51,2.2,0,4.49,2.7-.41,10.3,4.66,1.79.24,3.35,1.55,5.14,1.82,2.05.3,6-3.16,2.75-6.41-.39-.37-.89-.51-1.17-1.07.46-.25.66.35,1,.5,1.28,1.19,2.28,2.21,3.62.61.84-1.14,2.56-1.76,2.38-3.4-.14-1.35-.76-1.08-3.4-2.16-1.47-1.16-4.4-.71-4.57-1.92-.54-3.88-3.12-3.16-4.71-4.55-3.33-1.84-7.2-1.89-10.18-4.93-1.29-.41-9.83-1-11.6,1.79a.85.85,0,0,0-.38.58c-.28-.58.57-.85.24-1.45a2.17,2.17,0,0,0-1.66-1.14c-2.39-.21-4.6,0-5.24,3.8a8.28,8.28,0,0,0,6.65,4.59c-.67,1.24-1.77,2.92-2.49,2-1.38-1.75-3.25-1-4.56-2.35-7-4.71,1.18-4.32.14-7.89a2.51,2.51,0,0,0-1-.79c5.19.17,2.32.16,15.17,0,1.93-3-1.2-1.21-1.36-2.22,3.95,0,8.79-3.64,9.3-4.76.22-.36-.13-1.38.3-1.15,1.5.78,2.8-.35,4.19-.39.49-.11,7.37-2.55,7.37-2.55-.09,1.49,0,1.51,1.54,1.44.15,0,.22-.1.19-.29-.07-.54.26.28.11.3-1.29.56-9.63.42-10.82,2.09.13,2.2,1.21,2.42,2.64,2.29,1-.09-.35.3,0,.77a4.9,4.9,0,0,0,1.11,1.27c4.71,3.38,20.54-1.77,21.21,8.28.69,2.71,3-.28,5.84,3.58-4,3.71-4.18,4.4-2.25,8.48,7.77,11.11,5.65,8.34,13.74,10.65,2.15-1,2-4.75,6.34-10.2,2.74-1.12,5.71-.43,8-2.77,3.85-4,9-.54,15.06-5.15,1.45-1.82.08-1.78-.83-2.06m-132.09,2.28c1.26,0,2.62-.34,3.46,1.37a14.68,14.68,0,0,1-3.46-1.37m1.29-2a13.14,13.14,0,0,1,2.43,0,15.15,15.15,0,0,1-2.43,0m41.83-15.29c-.1-.24-.2-.47-.29-.71.18-1.49-.77-1.77-1.47-2.31.84.32,1.75-.36,2.84-.14-1.39.62-.34,2.42-1.08,3.16m-44.1,4.11,0,0s0,0,0,0m47,99.1c-1.87,1.7-1.07,1.78,0,1.84,2.89-1.8,7.81.27,9.65,4.06,1.17-.52,2.6.53,3.67-1.14L-177-110c-3.19-.78-6.07-4.1-9.62-1.92m21.65,7.76c-1.14-1.77-2.67-2-4.25-2.12-.71.32-2.73-.67-1.17,1.92-.61,1.67-1.87,0-2.64.84.92,1.32,2.11.68,3.21.72h0c.2,0,4.68-1.08,4.85-1.36m78.61-87.17-1.87-1a54.5,54.5,0,0,1-11.56.23c2.27,2.36,4.39,5.11,7.66,4.85,1.19-1.66,6-.36,5.77-4.11m112-28.18,1.87-.14c-1.1-1.69-2.56-.52-3.83-.81.4,1.17,1.29.67,2,1M5.93-45.88c-.46-.93-.69-2.14-1.64-.28C-.87-36-2.53-45.52-2.57-35.87c-.59,1.9,1.06,4.09-1.21,5.71-1,2.05-.25,4,.28,5.9C4-14.83,7.26-40,6.59-41.77a8.64,8.64,0,0,1-.66-4.11M23-220.49c-8.62-2.57-12,.26-13.83,1.61,11.2.64,12.44,1.16,13.83-1.61m-72.9,5.25c3,.08,5.1,3,7.86,3.78,5-6.21,3.92-2.95,9.7-1.54.78-.1,1.51-.27,1.3-1.65-.52,0-1.05.07-1.37-.63-.39-1.1-1.31-.84-2-1.27.72.11,1.44.31,2.05-.4,1.62-.34,3.4.27,4.82-1.44-4.74-3-16.44.76-21.63.39-2.07-.14-1.86,2.73-.77,2.76M16-200.57c.69-1.11-.16-1.23-.63-1.61-4.41-3.6,3.08-2.74,8.32-7.57,2.87-1.78,6.45-.09,9.5-2.81-2.66-1.35-4.74.69-6.95.26-6.64-3.25-10.7,2.34-18,9.23,2.25,2.56,5.06,2.21,7.75,2.5m131.85-8.34h0a1.35,1.35,0,0,0,2.23.2c-.53-1.73-1.34-.86-2.1-.49-.85-1.09-1.84-.71-3.56-.39,1.56.62,2.38,1.32,3.43.68m-70.17-7.38c-.5,2.29.27,1.69,5.78.88.7.28,1.37.48,1.27-1-1.29.08-3.66-2-7-.06-.13-3.18-3-2.27-3.89-4.2-3.29-.69-6.4-.3-9.09,2.55a7.1,7.1,0,0,1,.17.8c2.36,1.38,11.27,3.59,12.74,1m54.86,8c2.07-1.15,3.19,1,4.73,2.7.19-1.4-1.75-2.84.28-3.3,1.94-.1,5.9.23,3.86-1.93-3.41.46-6.85-.91-10.26.19-.22,1.45.91,1.58,1.39,2.34m-340.46,2c-2.05-.89-3.33,2.37-5.39,1.77a3,3,0,0,0,.9,1c2.34.49,4.58,2.71,7.05.61.32-2.59-.89-3.29-2.56-3.43m-17.34-6.46a1.76,1.76,0,0,0,1.26-2.4l-.57-.16c-1.52.26-3.15-.3-4.53,1,.69,2.92,2.53,1.16,3.84,1.55m19.38-.95c1.8.25,3.3,1.26,2.45-1.41l-1.85-.22c-.56.6-1.94-1.52-1.94.95.5.06,1,0,1.34.68m-9.7-.56c2.14,1.53,4.28,2.77,6.39-.08-1.92-1.81-4.43-1.16-6.44-2.6-.59.51-1.75-.72-1.94,1,1.2-.51.84,2.07,2,1.65m0,2.34c-.63.29-.7.93-.6,1.66,1.48.34,2.88,1.38,4.45.73,4.38,3.27,6.6-2,3-2.21a4.12,4.12,0,0,0-3,.83c-1.37.19-2.73.38-3.85-1m11.17,2.86c1.08,1.1,2,1.76,3.37.52a2.46,2.46,0,0,0-3.37-.52m1.71-2.9-2.54.15c1.17,3.25,3,.29,4.43.74-.41-1.08-1.24-.66-1.89-.89M7-220.68l-7.55.94c2.61,1.81,5,.53,6.89,1.87A2,2,0,0,0,7-220.68M151.23-58.54c1.19-.91,1.83-2.72,3.25-3.26.62-1.65-2.14-3.19-3.22.92-1.3,1.33-3.28-.54-4.45,1.42v0c-6.4-6.77-15.35-11-17.49-8-.48.69-.86.68-1.18-.1-1.31-3.17-3.6-2.83-5.83-2.76-2.28.89-.37,1.86,0,2.8,2.93.16,2.73,5.72,6.07,5.64,3.85-.09,4.08,1.93,4.15,5.8.84,2.12,3,.87,4,2.53s2.43,1.63,3.84,1.69a1.49,1.49,0,0,0,.09-1.41,2,2,0,0,0,.5-1.11c2.71-3.62,2.33,2.09,10.32,4.17,0,.51.05,1,.07,1.54a4.92,4.92,0,0,0,3-.75c-.53-1.81-1.88-.56-2.43-1.66,0-7.75-2.38-2-4.06-4-.94-1.15-.44-2.87-1-4.19,1.43.35,2.82,1.18,4.34.7M160.85-57c-.44-.87-1-1.44-1.82-.93a3.66,3.66,0,0,0,.08,3.53l1.74-.05L162.3-56a1.78,1.78,0,0,0-1.45-1m12.26,15,1.33,1.86c-.3-.79.79-3.21-1.33-1.86m-56-30.52c-.19,1.93-.82,3.94.65,5.67.79-1.55.28-3.53,1.22-5,.73-1.19-1.6-3.48-1.87-.65m1,7.85c.86.54,1.64.8,2.5-.05a2.15,2.15,0,0,0-2.5.05M49.37-88.06a9,9,0,0,0-.43,5.61c.31,1.26.89,2,1.89,1.58s1.56-1.44,1-2.88a10.55,10.55,0,0,0-2.48-4.31M158.48-57.68,157-59.45c-.24,1.58.15,2.29,1.45,1.77m10.14,22.89c.62,2.47,1,5,3.77,4.23L170.61-33c-.78-.31-.69-2-2-1.8M-17.2-135.68c-1-.61-1.83-.43-2.49.87,1.07.68,1.94.85,2.49-.87m-35-7.76a4.89,4.89,0,0,1,.14-.78c-.62-4.65-4.26,2.05-.14.78M180-200.93c-1.18-.57-1.09,2.57-2,1.47-2.42-2.87-10.06,1.83-15.16-3.47-.74-.76-1.83-.64-2.8-.64a18.36,18.36,0,0,1-10.13-.12c-2.39-2.27-5.38-.27-7.86-1.88-3.28-1.29-6.08.45-8.86,2.31-.67.23-6.19-.77-8.87.1-5.85,2.12-2.1-2.8-6.36-4a17.89,17.89,0,0,0-5.57-.81c-5.59,4.57-10.74-3.51-22.79,1.48,5.28-2.63,7.21-1,7.31-3.78s-2.25-3-4-3.41c-3.45,1-6.62-1.46-10-1.36-3,0-5.57,2.24-8.53,2.26-4.93-2.37-4.68,1.1-9.67,1.12-3.34-.09-6.1,2.28-9.11,3.58-1.89,1.16-4.3-.35-5.89,1.38a5.93,5.93,0,0,1-4.71,2c-.52,0-1.2.58-1.49.23-2.06-2.44-3.28-.36-4.61,1.26.19,1.23.06,2.56.28,3.78-1.06-3.18,1.12-5.48-3.92-7.46-2.21.16-3.13,2.87-4.84,4-1.06,1.39-.82,2.92-.33,4.42-1.29-.88-7.79-3.23-9.07-1.68-2.15,2.62-5.22,1-9.41,2.45-2,.29-4-.1-6,.41-8,3.72-5.09-3.33-8.9-.26-1,.74.34,2.87-1.15,3.28a15.94,15.94,0,0,0-2.39.93c3.63-5-10.36-5.24-15.39-8.58-4.45-2-22.44,1.92-23.12,4.89a1.85,1.85,0,0,0-1.85,1.29c.68.29,1.12-.16,1.57-.51-8.64,10.94-17.5,7.19-13.32,17.82,5.43,7.43,5-6.87,11,5.87,1.77,2,3.13-.21,4.64-.77,2-.52,1.28-3.68,2.76-4.7,1.69-1.06,3.28-2.12,1.15-4.73-1.29-1.58.12-3,6.56-7.63-2,2-4.44,3.39-3.21,7.53.88,2.94,2.19,2.93,4.58,2.47a2,2,0,0,0-1.08,1.82c.06.5.52,1.2.3,1.35-1.07.72-1-1.36-2.52-.09-1.72,3.31-3.56,6.34-7.23,5-1.88,1.24-3.87.94-5.86.75-1.28.12-2.58.92-2.62-1.39.4-1.52.75-3-.66-4.08-1.71-.46-3.61.52-3.47,2.39.35,4.76-2.1,4.28-9.17,9.33,1.84-4.69-4.72-4.09-5-10.78a3.37,3.37,0,0,0-6.1-1.47l-1.63-.47c-.19,1.29.39,1.38,1,1.45-.56,1.23,0,3,.52,4.27-2-1.7-3.58-.42-5.11,1.49-.57,1.65-1.22,3.28-.39,5.11l2,.12c3-1.34,5.16-1.34,4-6.09.7.63,1.65.78,2.4,1.61a5.42,5.42,0,0,0-1.26,4.31l2.19.13c-.43,1.39-5.81,2.53,4.17,2.83-1.79.88-3.67,1.43-5.42,2.41-2.93,3.77,5.33,2.39,3.56,8.66-3.38,3.65-11.19-7.53-11.25,9.9.76,4.37,4.1,5.53,7.59,5.14-8.09,1.8-8.46,11.54-9.9,12.37-4.24,2.44-5.81,7.73-8.14,12.21-1.67,4.06.74,6,.21,10.93-1.36,4.73-.91,8.85,2.25,12.28,2.59,2.8,5,13.75,14.3,10.68,2.78-.91,4,1.51,7.38-.62,7.92-4.84,5.23.71,9.77,1.8,8,1.94-.2,6.49,4.89,13.61,9.72,15.65-.73,19.14,2.71,28.21,7.74,20.38-1.16.57,7.46,22.3a10.05,10.05,0,0,1,.93,3.44c.5,8.22,6.65,3.56,8.9,3.63,10.88.21,13.94-16.11,15.23-17,5.59-3.7-1.33-7.7,4.28-12.76,1.81-2.3,5-2.66,5.63-6.62-.35-13.52-5.21-17,1.16-24.54C-2.22-71.18,8-80.18,8.25-90.88c-.5-5-8.29,1.83-10.42-.69C.42-94.68,4-94.92,7-96.94c1.69-.3,2.56-2.51,4.11-3,3.53-1.15,5.85-4.26,7.87-7.85,3.73-6.67-2-6.79-2.89-9.44-1.82-5.75-4.42,4.34-7.5-1.49-.88-1.66-2.89-.21-4.53-6.13,0-.18,0-.44-.06-.63a1,1,0,0,0,.23-.19c1.67.83,4.39,9.21,9.91,6.57.72-.34,1.23,0,1.58.8.91,2.15,2.56,2.1,4.13,2.39,3.05.57,6.15-.75,9.18.39a10.28,10.28,0,0,1,2.67,2.71c1.23,1.53,1.76,4,3.74,4.54,1.7-.4,2.8,0,2.39,2.72a6.57,6.57,0,0,0,.13,2c.5,4.08,2.61,7.38,3.34,11.34,1.31,2.69,1.1,6.76,4.28,7.74,2.09-1.11,2.94-3.57,3.89-5.92.61-4.63.8-9.54,4.79-11.9A10.08,10.08,0,0,1,56-104.08c2.77-1.77,4.35-6.4,8.17-5.67.74-.4,1.41-.57,1.82.64.63,1.86,1.89,3.26,2.33,5.26.6,1.77.19,4.32,2.16,5,1.33.47,2.32-.38,3-1.88a24.44,24.44,0,0,0,.6,5.19c1.1,17.11.5,6.3,4.21,19.07-1.29-1-6.94-8.42-7.84-3,.41,1.65,10.08,18.49,13.63,20.88a2.06,2.06,0,0,0,2.17-.51c-.43,5.6,4,1.46,6.12,4.43,1.95.85,7.26,2.86,7.45.22,1.46,2.09,5.1,1.29,5.61.16a3.32,3.32,0,0,0-2.45-1c-1,1.3-2.19-.15-3.23.4h0c-.9-.73-2.39-.53-3.23-2.76-.54-.1-2,.43-3.18-.72-1.55,2.24-4.1-1.25-6.9-.89.57-2.15,1.63-4.16,1.11-6.61-3-3.27-3.75,1.65-4.55-5.7L82.59-72a2,2,0,0,0,.58.14c2.53-.82.76-2.68.6-4.14-.16-3.23-1.13-5.75-3.39-7.48S77-90.15,78.71-91.64c2.43-2.18,5.53,7.8,7.55,5.62,4.45-4.81,8.71-6.23,1.85-17.44-.78-1.27-1.16-2.61-.12-3.92,2.88-3.61,3.13.69,5.71-.88,3.1-1.72,6.61-2.1,9.42-4.76,10.2-10.62,7-16.17,5.29-19.44-.88-1.74-1.15-3.19.61-4.29,5.27-3.32-3-3.71-3.67-5.36,1-.61,2.71-2,2.75-1.72.47,3.67,2.25,1.44,3.45,1.38s1.93,0,2,1.76c.6,1.35,1.65,2.27,1.59,4.22-.1,3.38,1,4.17,3.39,3s2.81-2.87,1.75-6.91c-2.39-4.31,1.08-5.29,2.54-7.43,12.17-2.34,15.36-17.27,14.72-20.59-1-4.46-4.28-2.12-6.38-3.17,0-.35,0-.53.08-.58,2.49-2,4.9-4.23,7.44-6.17s7.21.45,11.89-1.28c.84-.61,1.27,1.1,2.78,1.26,5.14-.08,1,0,7.45-4.45,1.86-1.9,3.35.95,5.09.64a11.4,11.4,0,0,1,2.47-1.43c-1.06.34-5,3.49-6,4.24-5.1,4.14-5.59,5.69-4,13.17.83,2.09,1.83,2.85,3.62.32,3-4,8.12-5.8,7.87-13,.51-1.65,2-1.37,10.05-2.31,3.24-1.35,6.48-2.7,9.68-4.16,3.58-2.37-1.49-3,3.81-4.95,2.18-.82,3.42,2.25,5.91-.62.4-1.39,2-.56,2.37-2.29-17.65-8.75-11.33-8.3-21.6-7.7M-26.51-181.16c-.25,0-.51,0-.77.06l.77-.06m3.72,51.78c-8.84,2-11.66-8-15.44.41-1.35,2.62-6.05-2.72-8.86-3.11-5.33-.75-.11-7-5.23-8-7.09,1.53-5.94-1.55-17.14,3.15-.22,0-.43,0-.65,0a6.67,6.67,0,0,0,4.17-3.75c1.59-6.29,1.36-1.93,5.35-8.41,11.78-3.59,5.45-1.41,13.48,3.58a6.11,6.11,0,0,1,3.1,4.37,1.27,1.27,0,0,0,.1.12l-3.73.06c1.68,3.37,2.8,3.49,4.35.44,1.06.35,2.74-.87,2.57-2.94,0,0,0,0-.05-.06,1.64,0,1.71-1.5.29-2.18.11-.68-1-1.47-1.42-1.82-1.67-1.34-3.56-2.31-4.82-5.05,1.83,1,3,2.57,4.56,3.42,5.74,2.95,2.7,7.84,6.57,7.69,0,.18,0,.36,0,.54,1.39,3.49,1.71,3.67,2.81,1.61-.19-.67-.38-1.34-.56-2a1.39,1.39,0,0,0,.76-.58c.41-1.15.35-2.85,1.87-2.72s1.7,1.71,1.91,3.19c3.76,6.48,11.37,5.16,13.21,4.58-1.3,9.68-2.7,6.32-7.18,7.46m9.09-60.46s.11.37.11.37l-.28-.11c-2.29-1.5-1-1.66-2.23-3,.41.29,2.13,1.11,6.31.31a3.26,3.26,0,0,1,1.63-.48c-3.38,1.55-6.15.79-5.54,2.9m52.35-4.58a1.07,1.07,0,0,1,.42-.53,3.32,3.32,0,0,0,.53-3.24c.85,1.68.3,2.54-1,3.77M191-166l3.82-.15c-1.3-1.16-2.58-1.57-3.82.15m-244.13,16.8c-1,.11-.56,1,.08,2,.74-1.13,1.22-1.94-.08-2m242.9-16.06c-.54-2.58-1.27-.3-1.92,0h1.89ZM188.63.06c-1.47-1.67-2.22-4.46-4.54-4.81-1.29-.39-2.26-3.22-2,0-.34,2.3,2.4,3.27,1.56,5.71-.74,2.19.24,3.53,1.2,4.94h-.07c1.58,3.42,4-2.56,5.09-4.22,0-1.14-.45-1.6-1.27-1.65m-8.31,7.66.1,0c-1.19,3.67-5.15,3.27-6.33,7,2,1.06,3.84,1.88,5.53-.5.56-4.37,5.14-4.13,4.54-8.28-2-1.88-2.34-1.75-3.84,1.74M139.48-169.22c-1.1-.48-1.28,1-1.87,1.59.18.82.37,1.64.55,2.45.08,10.21-.26,9.31.67,9.2,3.22-.36-1.81-5.12,2.6-5.23l-.66-4c-.48-.46-1.1-.79-1.07-1.76,0-.77,1-1.74-.22-2.26m-32,107.48c.85-.79.91.38,1.26.83.71-.79,1.43,1.12,2.05.06.71-1.22,0-1.51-1.38-5,.14-.72.64-1.17.83-1.85,0,0,0,0,0-.06l.91-.19c-.23-1.44-.81-1.45-1.48-.81-.09-.06-2-.42-2.44-.6,2-.74,4.26.51,6-1.44.2-1.65,1.5-2.4-.66-1.78-1.4,1.94-6.86-2.46-6.48,3.38-2.88,3.71.91,14.28,1.35,7.49m1.78-54.56-1.16,0c-3.86,5.71,1.74,6.59,1.16,0m.12,20.6h0c.27,1.29,1.58.53,2,1.63,1.6-1.61-.57-1.57-.65-2.44l-.85,0s0-.09,0-.14c-.21-2.43,1.6-4.8.12-7.27a3.9,3.9,0,0,1-.57-.13c-.41-.35-.8-.78-1.35-.63l-.74.79c-.41,2.38-2.09,8.22,2,8.21M143,5.09c-.42.25-1.18.06-.93,1.17,1,4.29,2.4,5.37,5.44,1.44-.2-4.24-1.46-1.18-4.51-2.61M102.32-83.28c-1.46,2.13-3,4.16-5.1,5.18-4.17,8.19-8.08-.07-5.2,11.4a2.81,2.81,0,0,0,1,3.08c6.84,2.74,7.9,2.35,9.88-3.61,1-2.73,2.78-5.19,1.48-8.69-.37-1,.52-2,1-3,.75-3.47-1.52-3.5-3-4.41M142-44.4c-1.63-1.21-1.19-6.16-3.36-5.78-3.58.62.45,16.92-7,8.47-2.95-2.61.84-4.87-1.27-6.43-1.77-1.31-3.85-1.47-5.76-2.35-1.28-.59-1.31,2-2.46,2.13a5.39,5.39,0,0,0-2.1,2.44c-2,3.59-1.49-2.27-6.88,1.91-2.21,2.24-5.28,10.14-10.47,10.89a8.81,8.81,0,0,0-6,3.77C94.06-17.91,100.9-14.58,99-7.93c-.91,3.19,2.62,2.57,5.36,2.53,2.56-2,5.56-.93,8.25-2,3.38-.77,6.52-3.12,10.12-2.43,3.67.36,4.59,4.89,9.25,5.17l-1.44,1.4,1.43.39L132.64-4h0c1.85.89,4.39,7.61,9,5.08,8.06,7.14,13.61-14.89,13.63-16.76.84-8.43-4.09-11.59-7-18.26-4.59-2-3.71-8.12-6.29-10.49M90.72-103.93c1.74.05,2.73-.86,2.55-3.27-1.7,0-3.8-.52-2.55,3.27m23.74,13.15c.29-1.94-.37-2.68-1.83-2.4.74,1.16-.08,2.2-.15,3.3,1.06,1.13,1.42-.25,2-.9m-7.33,38.69c-.12-.72-1-.65-2-.22,1.19.92,2.29,1.94,2,.22m13.76-78.29c.76.59.62,1.59.67,2.49,1.85,1.35,3.16-2,2.25-3.88,3.84,2.25,6.86-1.46,9.42-1.64,4.49-.3,6.17-9,4.6-14.31,1.64.78,2.74-.16,3.67-1.69.41-.91,1.95,0,1.79-1.65-.12-1.34-1.23-.65-1.82-1.09-1.46-.21-2.24-2.28-3.78-2.25-1.79,3.39-3.8,6.68-3.11,11.22,0,.34-.25.74-.41,1.09-2.18,3.8-10.9,5.43-11.53,8.69a1.93,1.93,0,0,0,.07.43l-.56-.15c-1,.47-2.19.79-1.26,2.74m-10.82,76.1h3.17c-2.15,3.43-1.9,3-.59,3.3l3.75-3.26-3.13-.09h0c-1.06-1.13-2.12-1.31-3.19,0-1.3.38-2.6-1.7-3.9,0,1.3,1.2,2.6,1.41,3.89,0m.63-37.33a.78.78,0,0,0-1.3.12c0,.54,0,1.08-.05,1.62h2.09c-.25-.59-.5-1.17-.74-1.75m-1.7,8c2-.57,3.69-.93,3.61,2,1.57,1.75,4.84-1.27,2.57-6.73-1.16,3-4.18,1.77-6.18,4.68"/></g></g><g class="a4e1ce93-5869-485a-93ca-1938f6068183"><path class="f2d4b76f-d0bf-498b-8cac-9691aaf2ef0e" d="M-189.28-187.23a2.93,2.93,0,0,0,2.43-1.58l-2.39,0c0,.52,0,1,0,1.56m-100.42,7.55c-.29,1-1.92,1.17-.89,2.91.88-.78,2.29-.78,2.17-2.84l-1.28-.07M-199-221.95v0l0,0Zm-106.94,48.8-5.32,2.22c1.7.24,3.43.47,5.32-2.22m65.83-40.27c.81-.05,1.65.45,2.46.45a1.43,1.43,0,0,0-.54,1.8c2.49,0,6.35,4.61,10.22.91,2-2,4.84.45,7.19-2.48-2.94.3-5.47-2.74-7.84.61a11.42,11.42,0,0,0-7.73-1.49h0c0-.89,1.35-2.34-.6-2.48-2.51,1.43-5.56.57-7.84,3.05,1.62.82,3.12-.26,4.67-.36m-19.68,41.82c-.52,1.33,1.29,2.13,1.75,3.45l.71-.84c-.92-1.92-1.59-4.83-2.46-2.61m156.56-31.16c-.21-.15-.47-.1-.63-.32,3,1,4.22,1.26,4-1.64-.92-3.19,7.07-5.32,1.84-9.45,3.53,1.3,3.1-2.8.41-3.38,1.43-1.09,3.58-.9,4.7-3.21s3.83-.79,5.3-2.86c-4.47-.94-11,1.92-16.87-2.55-8.56-1.24-4.92-1-17.33-1-2.12.31-4.21,1.12-6.38.83-4.36-1.14-8.52,2.85-12.92.85-4,2.1-8.15.19-12.19,1-1.09,1.38-2.59.2-3.77,1a8.2,8.2,0,0,0-1.4,0,5.53,5.53,0,0,0,1.27-1.21c-.85-1.31-2.35.07-3.18-1.3-12.25-.37-22-.85-28.27,1.41-2.52-.77-5,.2-7.5.32-1,.05-2.73-.14-2.81,2.3l0,0h0l-1.33-1c-2.06.65-4.3-.47-6.3,1.23-3.3,2.81,2,2.23,3.41,2.59a1.26,1.26,0,0,0-1,.44c.07.27.13.54.2.81,1.53,2.52,5.27,2.12,7.71,1.49-1.6,1.06-1.69,2.24-1,3.13a8.4,8.4,0,0,1-2.92-1.18c-.72,1.41-1.94-.27-2.73.73l1.92,3.08c-3.66-.29-6.29-.1-6.37,4.65-.35,1.63-1.57,3.25,0,4.89.68.5,1.73.4,1.9,1.8-1.36.69-.85-1.66-1.77-1.62-1.72-1.28-3.79-2-4.07-.34-.49,2.92-2.05,2.11-3.43,2.18-6.62-1.47-10.92,1.17-16.34.11,5.14-.27,10.23-2.07,15.41-.66,1.38-3.73-1.21-2.88-3.22-4.35-1.43-1.53-.89-7.14-4.58-3.9-1.5,1.32-3,.44-4.41.86-9.7-2.75,0-1.81-19.36-3.46-.42,2-1.61,3.43-2.49,5.08.88.12,1.86-.25,2.53.86,2.46,1.32,5.87-3,10.27,1.74a5.9,5.9,0,0,0,1.64.29c-1.2.07-2.7.41-1.75,1.35a3.46,3.46,0,0,0-1.24,0c-2.9-.88-5.82-1.6-8.83-1.11-3.35-.94-6.75-.69-10.14-.79-21.66,2.46-45.73-7.13-47.17,2.72-.93,1.64-2.74-.05-3.9,1.78,2,1.12,4.66,3,4.66,3l0,.15c-.7,0-1.37-.65-2.08-.12-1.35,1.27-3.43.41-4.48,2.55,1.66.82,3.22,2.08,5.12,1.69.59.93,1.49.72,2.41,1-1.2.05-2,.9-3,1.2-3,2.57-1.64,4.47.57,6.26,6,5.22,4.7,2.38,7.76,3.66-2.65,3-6.09,2.13-5.87,5.28,5,2.72,15.49-8.36,15.49-8.36,2.14,2.16,3.51.17,5.18-.45,0-.1,0-.18.05-.26,1.08.82,1.46.3,1.68-.54a.64.64,0,0,0,.59,0c1.52.09,2.88,1,4.36,1.37a23.25,23.25,0,0,1,12.07,4.6c.34.82,1,.3,1.52.21,2.22,5.55,2.17,2,7.14,9,1.31,1.86,1.8,4.62,3.89,5.63,2.84,1.37,3.56,4.25,3.21,7.83-2.34,15.45,6.49,16.83,10.86,25.09,2,4.06,3.67,8.44,6.52,11.73a6.26,6.26,0,0,0,2.87,3.52c3.16-.54,1.86-1.08-1.79-8.83.94.27,7.78,10.2,8.23,12.48,1.23,6.4,11.13,10,12.44,10.36,6.93-.54,7.26,3,9.6,3.69,1.8.62,3.63,1.15,5,2.94,1.45,3.58,8.28,11.34,11.41,7.36,1.3-1.65,3.48,4.44.59,9.23-1.54,2.55-3.3,4.92-4.29,8,2.64,34.87,24.23,21.76,14.35,50.11-.29,3.87-.05,7.82-1,11.61-2,3.76-1.79,8.4-3,12.49a70.09,70.09,0,0,1-2,13.93c.36,10,4.54,10.15,8.5,11.69,3,2.94,5.27.15,7.62-1.76-.88-2.17-7.37-3-2.37-9.39.3-.38.63-.7.91-1.1,2.23-3.33-2.14-3.88.06-5.74,1.73-1.16,2.49-3.44,3.64-5.27a2.48,2.48,0,0,0,0-1c1.56-2.17,2.69-5,5.44-5.27,3-.33,6.35-3.51,4.66-7.36-.19-.52-.42.12-.23-.35s.37,0,.48,0c1.13.38,1.74.9,3,.35,2.43-1.44,3.36-4.89,5.47-6.75,1.14-1.84,1.93-4,2.92-5.92C-136.5-31.26-129.36-25-126.52-32a34.86,34.86,0,0,0,3.13-11.12c-.32-6.11,5.3-9.47,5.78-14,.35-3.45-.38-6.1-3.21-7.22-10.79-8.75-15.89-2.28-19.76-13.4-1.26-5.85-4.66-7.23-9.1-6.89-6.58-3.06-5.58-9.39-10.81-8.28-3.37,1-8.66-2.19-9.35-2-.37-.29-.48,1.71-1,.21-1.7-2.51-2.9.85-4.41.67-2.34-.22-2.5,4-4.76,3.93-4.75-1.19-6.39,2.31-8.15-3.63,1.14-16.51-7.6-3.06-5.95-13.44.54-1.39,1.83-2.6.8-4.41s-2.41-1.47-3.8-1.14a3.44,3.44,0,0,0-1.71,1.06c-3.48,5-5.81,7-9.35-.86-.5-4,.13-5,.24-6.69-.56-3.11.79-4.6,2.73-6,2.23-1.61,4.34,0,6.49-.23,2.93-3.06,6-2,9.06-.46,1.71,2.29,1.52,6.41,4.41,7.59,6.16,0-4.82-10.29,5.32-16.38,3-1.68,2.77-4.74,2.46-7.86,0,0,.09.11.15.16.15-.33.31-.66.46-1v-.75c2-.91,3.77-3.94,6.42-4.48.85-.51,1-1.65,1.49-2.56,1-2.09,4-3.12,4.2-2.73,1.77,3.46,3.27.86,4.85.05a12.51,12.51,0,0,0,3.7-2c.65-.68,1.52-1.37,1-2.61-.78-1.7-1.88-.17-2.83-.21l-.87,0c-.45-.56-.89-.67-1.38-.37-2.85-1.72,1.55-4.47-3.78-5.14a16.64,16.64,0,0,1,2.93-.5,2.4,2.4,0,0,0-.34.36c1.06-.36,2.07,2.09,3.16.1a4,4,0,0,1-1.07-.43c5.72.6,3,.41,8.28-1.9-4.28,7.66-3.06,5.45.5,6.54a5.21,5.21,0,0,0,3.46,1.73c2.54.55,3.32-.55,2.56-3.65-1.31-5.36-3.24-.84-4.69-5.83,5.39-5.25-6.69-6.87-7.95-12.31-7.22-9.59-5.17.05-9.73-2-1-.51-.92-1.76-1.26-2.74-.37-1.23-1.45-.67-2-1.32-2.25-1.12-4.09-4.44-10-2.2-2.27.86-.81,4.94-1.52,7.43a1.16,1.16,0,0,0,0,.4c1.34,2,2,3.89-.35,5.54a3.54,3.54,0,0,0-1.23,2.69c-.1,1,1,2.72-.59,2.9-1.24.14-1.72-1.42-1.95-2.78-.45-2.55-1.76-3.59-3.66-3.69-3.33-.14-6.15-2.84-9.45-3.19a3,3,0,0,1-2.88-1.82c-6.5-6.33,7.72-7.3,9-12.31a2.49,2.49,0,0,1-.08-.32c.92,1.59-1.37,2.2-1,3.61a5.66,5.66,0,0,0,4.58,0,3.93,3.93,0,0,0,3.84.4c.65-2.39-1.39-1.73-1.9-2.79-1.25-.92-2.91-.45-4.06-1.71,3.87.34,7.34-1.67,4.84-7,3,.47,6.06.25,8.78,2.26-.87-.1-1.79-.3-1.83,1.69,1.26.67,2.23.59,2.51-1.18.64.44,1.73.18,1.91,1.14.25,1.24-.87,1.68-1.46,2.34-1.37,1.53-3.91.1-4.51,2.2,0,4.48,2.7-.42,10.3,4.66,1.79.24,3.35,1.55,5.14,1.81,2,.31,6-3.16,2.75-6.4-.39-.37-.89-.51-1.17-1.07.46-.25.66.35,1,.5,1.29,1.19,2.28,2.21,3.63.61.83-1.14,2.56-1.76,2.38-3.4-.14-1.35-.76-1.08-3.4-2.16-1.47-1.16-4.4-.71-4.57-1.92-.54-3.88-3.13-3.16-4.71-4.55-3.34-1.84-7.2-1.89-10.18-4.93-1.29-.41-9.83-1-11.6,1.79a.86.86,0,0,0-.39.58c-.27-.58.58-.85.24-1.45a2.16,2.16,0,0,0-1.65-1.14c-2.4-.21-4.6,0-5.24,3.8a8.27,8.27,0,0,0,6.64,4.59c-.66,1.23-1.76,2.91-2.48,2-1.38-1.76-3.25-1-4.56-2.35-7-4.71,1.18-4.32.14-7.89a2.58,2.58,0,0,0-1-.79c5.19.16,2.32.16,15.17,0,1.93-3-1.2-1.21-1.37-2.22,4,0,8.8-3.64,9.31-4.76.22-.36-.13-1.38.3-1.15,1.5.78,2.8-.35,4.19-.39.48-.11,7.37-2.55,7.37-2.55-.1,1.49,0,1.51,1.54,1.44.15,0,.22-.1.19-.29-.07-.55.26.27.11.3-1.29.55-9.63.41-10.82,2.09.13,2.2,1.21,2.41,2.64,2.29,1-.09-.35.3,0,.76a4.79,4.79,0,0,0,1.11,1.28c4.71,3.38,20.54-1.77,21.2,8.28.7,2.71,3-.28,5.85,3.58-4,3.7-4.18,4.4-2.25,8.48,7.77,11.11,5.65,8.34,13.74,10.65,2.15-1,2-4.75,6.34-10.2,2.74-1.12,5.71-.43,8-2.77,3.84-4,9-.55,15.06-5.15,1.45-1.82.08-1.78-.83-2.06m-132.09,2.28c1.26,0,2.61-.35,3.46,1.37a15,15,0,0,1-3.46-1.37m1.29-2a13.14,13.14,0,0,1,2.43,0,15.16,15.16,0,0,1-2.43,0m41.82-15.29c-.09-.24-.19-.47-.28-.71.18-1.49-.77-1.77-1.47-2.31.84.32,1.75-.36,2.84-.14-1.4.62-.34,2.42-1.09,3.16m-44.09,4.1,0,0,0,0m47,99.11c-1.87,1.7-1.07,1.78,0,1.84,2.89-1.8,7.81.26,9.65,4.06,1.17-.52,2.6.53,3.67-1.15l-3.74-2.83c-3.19-.78-6.07-4.1-9.62-1.92m21.65,7.76c-1.14-1.77-2.67-2-4.26-2.12-.7.32-2.72-.67-1.16,1.92-.62,1.67-1.87,0-2.64.84.92,1.32,2.11.68,3.21.72h0a37.32,37.32,0,0,0,4.85-1.36M-89-194l-1.87-1a54.5,54.5,0,0,1-11.56.23c2.27,2.36,4.38,5.11,7.66,4.85,1.19-1.66,6-.36,5.77-4.11M23-222.15l1.87-.15c-1.1-1.68-2.56-.51-3.84-.8.41,1.16,1.3.67,2,.95M3.32-48.49c-.46-.93-.7-2.14-1.64-.28-5.16,10.18-6.82.63-6.86,10.29-.59,1.9,1.06,4.09-1.21,5.71-1,2.05-.25,4,.27,5.9C1.38-17.45,4.65-42.65,4-44.38a8.64,8.64,0,0,1-.66-4.11m17.1-174.62c-8.62-2.56-12,.27-13.83,1.61,11.2.65,12.44,1.17,13.83-1.61m-72.9,5.26c3,.08,5.09,3,7.86,3.78,5-6.21,3.92-3,9.7-1.54.78-.1,1.51-.27,1.3-1.65-.52,0-1.05.07-1.37-.64-.39-1.09-1.31-.83-2-1.26.71.11,1.44.3,2.05-.4,1.62-.34,3.4.26,4.81-1.44-4.73-3-16.44.76-21.62.39-2.07-.14-1.87,2.73-.77,2.76m65.81,14.67c.7-1.11-.15-1.23-.62-1.61-4.41-3.6,3.08-2.75,8.32-7.57,2.87-1.78,6.45-.09,9.5-2.81-2.66-1.35-4.74.69-7,.26-6.64-3.25-10.7,2.34-18,9.22,2.24,2.57,5.06,2.22,7.74,2.51m131.86-8.34h0a1.34,1.34,0,0,0,2.23.19c-.53-1.72-1.35-.85-2.1-.48-.85-1.09-1.84-.71-3.56-.39,1.56.62,2.38,1.32,3.43.68M75-218.9c-.5,2.29.27,1.69,5.78.88.7.28,1.37.48,1.27-1-1.29.07-3.66-2-7-.07-.13-3.17-3-2.26-3.89-4.19-3.29-.69-6.4-.3-9.09,2.55a7.1,7.1,0,0,1,.17.8c2.36,1.38,11.27,3.59,12.74,1m54.86,8c2.07-1.15,3.19,1,4.73,2.7.19-1.41-1.76-2.85.28-3.3,1.93-.11,5.9.23,3.86-1.93-3.41.45-6.85-.91-10.26.19-.22,1.45.91,1.58,1.39,2.34m-340.46,2c-2-.88-3.33,2.38-5.4,1.78a3.23,3.23,0,0,0,.91,1.05c2.34.48,4.58,2.71,7,.61.32-2.59-.9-3.29-2.56-3.44m-17.34-6.45a1.76,1.76,0,0,0,1.26-2.4l-.57-.16c-1.52.26-3.15-.3-4.53,1,.69,2.93,2.53,1.17,3.84,1.56m19.38-1c1.8.25,3.3,1.26,2.44-1.41l-1.84-.22c-.57.6-1.94-1.52-1.95,1,.51,0,1,0,1.35.68m-9.7-.56c2.14,1.53,4.28,2.77,6.39-.08-1.92-1.81-4.44-1.17-6.44-2.6-.59.51-1.75-.72-1.94,1,1.2-.51.84,2.07,2,1.65m0,2.34c-.63.29-.7.93-.6,1.66,1.47.34,2.88,1.38,4.45.73,4.37,3.27,6.6-2,3-2.21a4.09,4.09,0,0,0-3,.83c-1.37.19-2.73.38-3.85-1m11.17,2.86c1.07,1.1,2,1.75,3.37.52a2.46,2.46,0,0,0-3.37-.52m1.71-2.91-2.54.16c1.17,3.25,3,.29,4.43.74-.41-1.08-1.24-.67-1.89-.9M4.36-223.29l-7.55.94c2.61,1.81,5,.53,6.89,1.87a2,2,0,0,0,.66-2.81M148.61-61.15c1.19-.91,1.84-2.72,3.26-3.26.62-1.66-2.14-3.19-3.22.92-1.3,1.33-3.28-.55-4.45,1.42v0c-6.4-6.77-15.35-11-17.49-8-.49.69-.86.68-1.18-.1-1.31-3.17-3.6-2.83-5.83-2.76-2.28.89-.37,1.86,0,2.8,2.92.15,2.73,5.72,6.07,5.64,3.85-.09,4.08,1.93,4.15,5.79.84,2.12,3,.88,4,2.53s2.43,1.64,3.84,1.69a1.44,1.44,0,0,0,.08-1.4A2,2,0,0,0,138.3-57c2.71-3.62,2.33,2.09,10.31,4.16,0,.52.06,1,.08,1.55a4.92,4.92,0,0,0,3-.75c-.53-1.81-1.88-.56-2.43-1.67,0-7.74-2.38-2-4.06-4-.94-1.15-.44-2.87-1-4.2,1.43.36,2.82,1.18,4.33.71m9.63,1.54c-.44-.87-1-1.44-1.82-.93A3.66,3.66,0,0,0,156.5-57l1.74-.05,1.44-1.54a1.76,1.76,0,0,0-1.44-1m12.26,15,1.32,1.87c-.29-.79.8-3.21-1.32-1.87m-56-30.51c-.18,1.92-.81,3.94.66,5.67.79-1.56.28-3.53,1.21-5,.74-1.18-1.59-3.47-1.87-.64m1,7.85c.86.54,1.64.79,2.49-.05a2.13,2.13,0,0,0-2.49.05M46.76-90.67a9,9,0,0,0-.43,5.61c.31,1.26.89,2,1.88,1.58s1.57-1.44,1-2.88a10.48,10.48,0,0,0-2.48-4.31M155.87-60.29l-1.45-1.77c-.24,1.58.14,2.29,1.45,1.77M166-37.4c.61,2.47,1,5,3.77,4.23L168-35.6c-.78-.31-.69-2-2-1.8M-19.81-138.29c-1-.61-1.83-.43-2.49.87,1.07.68,1.94.85,2.49-.87m-35-7.76a5.22,5.22,0,0,1,.14-.79c-.62-4.64-4.26,2.05-.14.79m232.23-57.49c-1.19-.57-1.1,2.57-2,1.47-2.43-2.87-10.06,1.83-15.17-3.47-.73-.76-1.82-.64-2.79-.64a18.4,18.4,0,0,1-10.14-.12c-2.38-2.27-5.38-.27-7.85-1.88-3.28-1.29-6.08.45-8.86,2.31-.67.23-6.19-.77-8.87.09-5.85,2.12-2.1-2.8-6.36-4a17.64,17.64,0,0,0-5.57-.81C104.2-206,99.05-214.09,87-209.1c5.29-2.64,7.22-1,7.32-3.78s-2.25-3-4-3.41c-3.45,1-6.62-1.46-10-1.36-3,0-5.57,2.24-8.53,2.26-4.93-2.37-4.68,1.1-9.67,1.12C58.77-214.36,56-212,53-210.7c-1.89,1.17-4.3-.34-5.9,1.38a5.88,5.88,0,0,1-4.7,2c-.52,0-1.2.58-1.5.23-2-2.44-3.27-.36-4.6,1.26.19,1.23.06,2.56.28,3.77-1.06-3.18,1.12-5.47-3.92-7.45-2.21.16-3.13,2.87-4.85,4-1,1.39-.81,2.92-.32,4.42-1.29-.88-7.79-3.23-9.07-1.68-2.15,2.62-5.22,1-9.41,2.45-2,.29-4-.1-6,.4-8,3.73-5.09-3.32-8.91-.25-1,.73.35,2.86-1.14,3.28a15.94,15.94,0,0,0-2.39.93c3.62-5-10.36-5.24-15.39-8.58-4.45-2-22.45,1.92-23.12,4.89a1.85,1.85,0,0,0-1.85,1.29c.68.29,1.12-.17,1.57-.52-8.64,10.95-17.5,7.2-13.33,17.83,5.44,7.43,5-6.87,11,5.86,1.77,2,3.12-.2,4.64-.76,2-.53,1.28-3.69,2.76-4.7,1.68-1.06,3.28-2.12,1.15-4.74-1.29-1.57.11-2.95,6.56-7.62-2,2-4.44,3.39-3.21,7.53.88,2.94,2.19,2.93,4.58,2.47a2,2,0,0,0-1.08,1.82c.06.49.52,1.2.29,1.35-1.06.72-.94-1.36-2.51-.09-1.72,3.31-3.56,6.34-7.23,5-1.88,1.24-3.87.94-5.86.75-1.28.12-2.58.92-2.63-1.39.41-1.52.75-3-.65-4.08-1.71-.46-3.61.52-3.47,2.39.35,4.75-2.1,4.28-9.17,9.32,1.84-4.69-4.72-4.08-5-10.77a3.38,3.38,0,0,0-6.11-1.47l-1.62-.47c-.2,1.28.39,1.38,1,1.45-.56,1.23,0,3.05.52,4.27-2-1.7-3.58-.42-5.11,1.49-.57,1.65-1.22,3.28-.39,5.11l2,.11c3-1.33,5.17-1.33,4-6.08.7.63,1.64.78,2.4,1.61A5.39,5.39,0,0,0-76-168.39l2.19.12c-.43,1.4-5.81,2.54,4.17,2.84-1.79.88-3.67,1.43-5.42,2.41-2.93,3.77,5.33,2.38,3.56,8.66-3.39,3.65-11.19-7.53-11.26,9.89.77,4.38,4.11,5.54,7.6,5.15-8.09,1.8-8.46,11.54-9.9,12.37-4.24,2.44-5.81,7.72-8.14,12.21-1.67,4,.74,6,.21,10.93-1.36,4.73-.92,8.85,2.25,12.28,2.59,2.8,5,13.75,14.3,10.68,2.78-.91,4,1.5,7.38-.62,7.92-4.84,5.23.71,9.77,1.8,8,1.94-.2,6.49,4.89,13.61,9.72,15.64-.74,19.14,2.71,28.21,7.74,20.38-1.16.57,7.46,22.3a10,10,0,0,1,.93,3.44c.5,8.22,6.65,3.56,8.9,3.63,10.88.21,13.94-16.11,15.23-17,5.59-3.7-1.34-7.7,4.28-12.76,1.81-2.3,5-2.66,5.63-6.62-.35-13.52-5.21-17,1.16-24.54C-4.83-73.79,5.35-82.79,5.64-93.49c-.5-5-8.29,1.82-10.42-.69,2.59-3.11,6.2-3.35,9.19-5.38,1.69-.29,2.55-2.5,4.11-3,3.53-1.15,5.85-4.26,7.86-7.85,3.74-6.67-2-6.79-2.88-9.44-1.82-5.75-4.42,4.33-7.51-1.5-.87-1.65-2.88-.21-4.52-6.12,0-.18-.05-.44-.06-.63a1.37,1.37,0,0,0,.23-.19c1.67.83,4.39,9.21,9.91,6.57.71-.34,1.23,0,1.58.8.91,2.15,2.56,2.09,4.13,2.39,3,.57,6.15-.75,9.18.39a10.14,10.14,0,0,1,2.67,2.71c1.23,1.53,1.76,4,3.74,4.54,1.69-.4,2.8,0,2.39,2.72a6.57,6.57,0,0,0,.13,2c.5,4.08,2.61,7.38,3.34,11.34,1.31,2.68,1.1,6.76,4.28,7.74,2.09-1.11,2.94-3.58,3.89-5.92.61-4.63.79-9.54,4.79-11.91a10.85,10.85,0,0,1,1.71-1.74c2.77-1.76,4.35-6.39,8.17-5.66.74-.4,1.41-.57,1.82.64.63,1.86,1.89,3.26,2.32,5.26.61,1.76.2,4.32,2.17,5,1.33.47,2.32-.38,3-1.89a24.46,24.46,0,0,0,.6,5.2c1.1,17.11.5,6.29,4.21,19.07-1.29-1-6.94-8.42-7.84-3,.41,1.65,10.08,18.49,13.63,20.88a2.06,2.06,0,0,0,2.17-.51c-.43,5.59,3.94,1.46,6.11,4.43,2,.84,7.27,2.86,7.46.22,1.46,2.09,5.1,1.29,5.61.16a3.32,3.32,0,0,0-2.45-1c-1,1.3-2.19-.15-3.23.4h0c-.9-.73-2.39-.54-3.23-2.76-.54-.11-2,.43-3.18-.72-1.56,2.24-4.11-1.25-6.9-.89C84.4-64,85.46-66,84.94-68.49c-3-3.27-3.75,1.65-4.55-5.7L80-74.61a2,2,0,0,0,.58.14c2.53-.82.76-2.68.6-4.15C81-81.84,80-84.37,77.77-86.09s-3.34-6.67-1.67-8.17c2.43-2.17,5.53,7.81,7.55,5.63,4.45-4.81,8.7-6.23,1.85-17.44-.78-1.27-1.16-2.61-.12-3.93,2.88-3.6,3.12.7,5.71-.87,3.1-1.73,6.61-2.1,9.42-4.76,10.2-10.63,7-16.17,5.29-19.44-.88-1.74-1.15-3.19.61-4.29,5.27-3.32-3-3.71-3.67-5.36,1-.61,2.71-2,2.75-1.72.47,3.66,2.25,1.44,3.45,1.38s1.93.05,2,1.76c.6,1.35,1.65,2.26,1.59,4.22-.11,3.38,1,4.17,3.39,3s2.81-2.87,1.75-6.91c-2.39-4.31,1.08-5.29,2.53-7.43,12.18-2.34,15.36-17.28,14.73-20.59-1-4.46-4.28-2.12-6.38-3.17.05-.35,0-.54.08-.58,2.49-2,4.9-4.23,7.43-6.17s7.22.45,11.9-1.28c.84-.61,1.26,1.1,2.78,1.26,5.13-.08,1,0,7.45-4.45,1.86-1.91,3.35.95,5.09.64a11.4,11.4,0,0,1,2.47-1.43c-1.06.34-5.05,3.49-6,4.24-5.1,4.14-5.58,5.69-4,13.17.83,2.09,1.83,2.85,3.62.32,3-4,8.12-5.81,7.86-13,.52-1.66,2-1.37,10.06-2.31,3.24-1.35,6.47-2.7,9.68-4.16,3.58-2.37-1.49-3,3.81-5,2.18-.82,3.42,2.25,5.91-.63.4-1.38,2-.55,2.37-2.28-17.65-8.75-11.34-8.3-21.6-7.7M-29.12-183.77c-.25,0-.51.05-.77.06l.77-.06M-25.4-132c-8.84,2-11.66-8-15.44.41-1.35,2.62-6-2.72-8.86-3.11-5.34-.75-.12-7-5.23-8-7.09,1.52-5.94-1.55-17.14,3.15-.22,0-.43,0-.65,0a6.67,6.67,0,0,0,4.17-3.75c1.58-6.29,1.35-1.93,5.35-8.41,11.78-3.59,5.45-1.41,13.48,3.58a6.11,6.11,0,0,1,3.1,4.37.58.58,0,0,0,.1.12l-3.73.06c1.68,3.36,2.8,3.48,4.34.44,1.07.35,2.75-.87,2.57-2.94,0,0,0,0,0-.07,1.65,0,1.72-1.49.3-2.17.11-.68-1-1.47-1.43-1.82-1.66-1.34-3.55-2.32-4.81-5,1.83,1,3,2.57,4.56,3.42,5.74,2.94,2.7,7.84,6.56,7.69,0,.18,0,.36,0,.54,1.39,3.49,1.71,3.67,2.81,1.61l-.57-2a1.33,1.33,0,0,0,.76-.58c.42-1.15.36-2.85,1.88-2.72s1.69,1.71,1.91,3.19c3.75,6.48,11.37,5.15,13.21,4.58-1.3,9.68-2.7,6.32-7.18,7.46m9.09-60.46s.11.37.11.37l-.28-.11c-2.29-1.5-1-1.66-2.23-3,.41.28,2.13,1.11,6.31.31a3.36,3.36,0,0,1,1.63-.49c-3.38,1.56-6.15.8-5.54,2.91M36-197a1.09,1.09,0,0,1,.42-.52A3.34,3.34,0,0,0,37-200.8c.85,1.68.3,2.54-1,3.76m152.34,28.45,3.82-.15c-1.3-1.16-2.58-1.57-3.82.15m-244.13,16.8c-1,.11-.56,1,.08,2,.74-1.13,1.22-1.94-.08-2m242.89-16.06c-.54-2.58-1.26-.3-1.91,0h1.89ZM186-2.55c-1.47-1.67-2.22-4.46-4.54-4.81-1.29-.39-2.26-3.23-2,0-.34,2.31,2.4,3.28,1.56,5.72-.75,2.18.24,3.52,1.2,4.94h-.07c1.58,3.42,4-2.56,5.09-4.22.05-1.15-.45-1.6-1.27-1.65M177.7,5.11l.11,0c-1.19,3.67-5.15,3.27-6.33,7,2,1.06,3.84,1.88,5.53-.5.56-4.37,5.13-4.13,4.54-8.28-2.05-1.88-2.34-1.75-3.85,1.74M136.87-171.83c-1.1-.48-1.28,1-1.87,1.59.18.81.37,1.63.55,2.45.08,10.2-.26,9.31.67,9.2,3.22-.36-1.81-5.12,2.6-5.23-.22-1.33-.44-2.66-.67-4-.47-.46-1.09-.79-1.06-1.76,0-.77,1-1.74-.22-2.26m-32,107.48c.85-.79.91.37,1.26.83.7-.79,1.43,1.12,2.05.05.71-1.22,0-1.51-1.38-5,.13-.73.64-1.17.83-1.85,0,0,0,0,0-.06l.9-.19c-.22-1.45-.8-1.45-1.47-.81-.09-.06-2-.42-2.44-.6,2-.74,4.26.51,6-1.44.2-1.65,1.5-2.4-.66-1.78-1.4,1.94-6.86-2.46-6.48,3.38-2.88,3.71.91,14.28,1.35,7.49m1.78-54.56-1.16,0c-3.86,5.7,1.74,6.59,1.16,0m.12,20.6h0c.27,1.29,1.58.52,2,1.63,1.6-1.61-.57-1.57-.65-2.44l-.86,0,.06-.14c-.21-2.43,1.6-4.81.12-7.27a3.9,3.9,0,0,1-.57-.13c-.41-.36-.8-.78-1.35-.63l-.74.78c-.41,2.39-2.09,8.22,2,8.22M140.38,2.48c-.41.25-1.17.06-.92,1.17.95,4.29,2.4,5.37,5.43,1.44-.2-4.25-1.46-1.18-4.51-2.61M99.7-85.89c-1.45,2.13-3,4.16-5.09,5.18-4.18,8.19-8.09-.07-5.2,11.4a2.81,2.81,0,0,0,1,3.08c6.84,2.74,7.9,2.35,9.88-3.61,1-2.73,2.78-5.19,1.47-8.69-.36-1,.53-2,1-3,.75-3.47-1.52-3.51-3-4.41M139.38-47c-1.63-1.21-1.19-6.16-3.36-5.78-3.58.62.45,16.92-7,8.47-3-2.61.84-4.87-1.27-6.43-1.77-1.31-3.86-1.47-5.76-2.35-1.28-.59-1.32,2-2.47,2.12a5.52,5.52,0,0,0-2.09,2.45c-2,3.59-1.49-2.27-6.88,1.91-2.21,2.23-5.28,10.14-10.47,10.89a8.79,8.79,0,0,0-6,3.77c-2.64,11.44,4.2,14.77,2.31,21.42C95.49-7.35,99-8,101.76-8c2.56-2,5.56-.93,8.25-2,3.38-.78,6.52-3.12,10.12-2.43,3.67.36,4.59,4.89,9.25,5.17L127.94-5.9l1.43.4L130-6.58h0c1.85.89,4.39,7.61,9,5.08,8.06,7.14,13.61-14.89,13.63-16.76.83-8.44-4.09-11.59-7-18.27-4.59-2-3.71-8.11-6.29-10.48M88.11-106.54c1.74.05,2.73-.86,2.55-3.28-1.7,0-3.8-.52-2.55,3.28m23.74,13.15c.29-1.94-.37-2.68-1.83-2.41.74,1.17-.08,2.21-.15,3.31,1,1.13,1.42-.25,2-.9M104.52-54.7c-.13-.72-1-.66-2-.23,1.19.92,2.29,2,2,.23M118.28-133c.76.59.61,1.59.67,2.49,1.85,1.35,3.15-2,2.25-3.88,3.84,2.25,6.86-1.46,9.42-1.64,4.49-.31,6.17-9,4.6-14.31,1.64.78,2.74-.16,3.67-1.69.41-.91,1.94,0,1.79-1.65-.12-1.34-1.23-.66-1.82-1.09-1.46-.21-2.24-2.28-3.78-2.25-1.79,3.39-3.8,6.67-3.11,11.22.05.34-.25.73-.41,1.09-2.19,3.8-10.9,5.43-11.53,8.69a1.49,1.49,0,0,0,.07.43l-.56-.15c-1,.47-2.19.79-1.26,2.74M107.45-56.9h3.18c-2.16,3.42-1.9,3-.59,3.3l3.74-3.26-3.12-.1h0c-1.06-1.14-2.13-1.31-3.19,0-1.3.37-2.61-1.7-3.9,0,1.3,1.2,2.59,1.41,3.88,0m.64-37.32a.78.78,0,0,0-1.3.12c0,.54,0,1.08-.05,1.62h2.09c-.25-.58-.5-1.16-.74-1.74m-1.7,8c2-.57,3.69-.93,3.61,2,1.57,1.74,4.84-1.28,2.57-6.73-1.16,2.95-4.18,1.77-6.18,4.68"/></g><circle class="f02b947e-87fa-45d1-b1d3-91c61b723db7" cx="100" cy="100" r="100"/><line class="a4f010ed-e950-4249-bb26-d16310f44eb6" x1="27.92" y1="136.04" x2="173.1" y2="136.04"/><text class="feea09f6-363b-4441-b018-31582b93a784" transform="translate(26.9 156.09)"><tspan class="ee6fe0d0-f9a6-4371-ab91-12c532a81513">e</tspan><tspan class="b07a76bd-18cc-4658-bf1f-b7197fb893cc" x="6.18" y="0">s</tspan><tspan class="b40fa708-5173-4ade-92a3-1ad90fd5353b" x="12.48" y="0">t</tspan><tspan x="17.87" y="0">á en el lugar </tspan><tspan class="ee6fe0d0-f9a6-4371-ab91-12c532a81513" x="93.73" y="0">c</tspan><tspan x="100.26" y="0">orrec</tspan><tspan class="e9ddb17a-29cb-480e-bd49-511e5bb8cfb4" x="133.32" y="0">t</tspan><tspan class="b0859e3c-1972-4ebd-bc48-1fe55a143ae3" x="139.42" y="0">o</tspan></text><text class="f6e53696-b7c6-483d-8e5b-d64183e99e1e" transform="translate(51.07 72.17)">o mejorar su</text><text class="bd07b877-63df-43d2-b41c-71e1e7b12750" transform="translate(50.67 51.88)">d<tspan class="be7a85a3-6599-488e-9417-483119852eeb" x="10.07" y="0">e</tspan><tspan x="19.12" y="0">sea crear</tspan></text><text class="b45c6798-c8af-4032-8c95-d85a160fc1e5" transform="translate(49.88 99.13)">PR<tspan class="b0acb156-51f3-4130-b1bc-d8e855da8f26" x="26.02" y="0">O</tspan><tspan x="38.61" y="0">YEC</tspan><tspan class="e361657c-125e-4c66-b702-ae67671eea62" x="76.2" y="0">T</tspan><tspan x="88.07" y="0">O</tspan></text><text class="fde5d482-6441-49c9-9fcc-38be23752e59" transform="translate(49.43 127.5)"><tspan class="a3885db3-4507-4dd8-b7d6-48a33802354b">a</tspan><tspan x="14.01" y="0">cuí</tspan><tspan class="bc558c86-c6c1-4f9f-9473-9e49f1fad39f" x="48.3" y="0">c</tspan><tspan x="61.82" y="0">o</tspan><tspan class="a140cc67-92c5-45fe-a9fe-b879a06860d2" x="75.86" y="0">l</tspan><tspan x="88.07" y="0">a</tspan></text><text class="b18221d9-2ff5-4008-abd9-28c08d9e4800" transform="translate(155.03 127.79)">?</text><text class="b18221d9-2ff5-4008-abd9-28c08d9e4800" transform="translate(22.03 81.08)">¿</text></g></g></svg>