<svg id="bf9f9a2b-c570-4ccc-87a0-4c1370d00bb3" data-name="Capa 1" xmlns="http://www.w3.org/2000/svg" viewBox="0 0 32 32"><defs><style>.ecc3adee-fa46-4088-9e26-9a685146d550{fill:none;}.a7abf494-aade-47e5-8b8f-65ebf35c0355{fill:#fff;}</style></defs><path class="ecc3adee-fa46-4088-9e26-9a685146d550" d="M15.32,3.1A12.39,12.39,0,0,0,2.94,15.48a12.26,12.26,0,0,0,2.34,7.23A1.34,1.34,0,0,1,5.41,24L4,27.17,8.08,26a1.34,1.34,0,0,1,.35,0,1.31,1.31,0,0,1,.66.18A12.38,12.38,0,1,0,15.32,3.1Zm7.36,17.18a3.68,3.68,0,0,1-2.76,2.06,5.81,5.81,0,0,1-3.05-.49,12.57,12.57,0,0,1-2.62-1.24,15,15,0,0,1-4.2-3.9c-.35-.48-.67-1-1-1.47a7.81,7.81,0,0,1-.93-2.14,4,4,0,0,1-.12-1A3.88,3.88,0,0,1,9.36,9.08a1.78,1.78,0,0,1,1.9-.28c.64.36,1,1.28,1.27,1.92a3.09,3.09,0,0,1,.4,1.73A3.33,3.33,0,0,1,12,13.9a.61.61,0,0,0-.08.83A9.92,9.92,0,0,0,16.9,19a.54.54,0,0,0,.7-.15c.37-.45.73-1.34,1.3-1.58a2.58,2.58,0,0,1,2.19.5c.58.35,1.56.78,1.72,1.5A1.81,1.81,0,0,1,22.68,20.28Z"/><path class="a7abf494-aade-47e5-8b8f-65ebf35c0355" d="M15.32.48A15,15,0,0,0,2.72,23.61l-2.28,5a1.3,1.3,0,0,0,1.19,1.85A1.06,1.06,0,0,0,2,30.43l6.28-1.72A15,15,0,1,0,15.32.48Zm0,27.38a12.36,12.36,0,0,1-6.23-1.68A1.31,1.31,0,0,0,8.43,26a1.34,1.34,0,0,0-.35,0L4,27.17,5.41,24a1.34,1.34,0,0,0-.13-1.31,12.26,12.26,0,0,1-2.34-7.23A12.38,12.38,0,1,1,15.32,27.86Z"/><path class="a7abf494-aade-47e5-8b8f-65ebf35c0355" d="M21.09,17.73a2.58,2.58,0,0,0-2.19-.5c-.57.24-.93,1.13-1.3,1.58a.54.54,0,0,1-.7.15A9.92,9.92,0,0,1,12,14.73.61.61,0,0,1,12,13.9a3.33,3.33,0,0,0,.89-1.45,3.09,3.09,0,0,0-.4-1.73c-.3-.64-.63-1.56-1.27-1.92a1.78,1.78,0,0,0-1.9.28A3.88,3.88,0,0,0,8,12.13a4,4,0,0,0,.12,1,7.81,7.81,0,0,0,.93,2.14c.3.5.62,1,1,1.47a15,15,0,0,0,4.2,3.9,12.57,12.57,0,0,0,2.62,1.24,5.81,5.81,0,0,0,3.05.49,3.68,3.68,0,0,0,2.76-2.06,1.81,1.81,0,0,0,.13-1.05C22.65,18.51,21.67,18.08,21.09,17.73Z"/></svg>