<svg xmlns="http://www.w3.org/2000/svg" viewBox="0 0 199 68"><defs><style>.a6ed5956-47db-4f34-ba17-8c779d1a5d9e{isolation:isolate;}.acc0607d-5112-4dfe-be7b-ada8cfbebee3{opacity:0.3;mix-blend-mode:multiply;}.ffda8d13-93ba-4fa5-b49e-9df8fb35e86f{fill:#ad3405;}</style></defs><g class="a6ed5956-47db-4f34-ba17-8c779d1a5d9e"><g id="eab2d8d9-5ac6-400f-91a2-370e14daa0ac" data-name="Capa 1"><g class="acc0607d-5112-4dfe-be7b-ada8cfbebee3"><path d="M38.78,41.23l-17.42,0-2.58,6.9-13.17,0L24,5H37.13L55,48.1l-13.67,0Zm-3.4-9.35L30.19,17.79l-5.27,14.1Z"/><path d="M87,14.39c-2.15,0-3.57.74-3.57,2.34,0,6.34,22.54,2.56,22.56,18.13,0,9.17-8.11,13.55-17.77,13.57a35.22,35.22,0,0,1-20.76-6.81l4.79-9.73c4.44,3.75,11.64,6.57,16.08,6.56,2.71,0,4.43-.93,4.42-2.9C92.75,29,70.22,33.18,70.2,18,70.19,9.67,77.26,4.37,88,4.35a34.88,34.88,0,0,1,18,5l-4.73,9.85C96.91,16.65,90.63,14.38,87,14.39"/><rect x="122.97" y="4.85" width="12.8" height="43.15" transform="translate(-0.04 0.17) rotate(-0.08)"/><path d="M184.41,41l-17.42,0L164.42,48l-13.17,0L169.59,4.8l13.17,0,17.85,43.13H187ZM181,31.68l-5.19-14.09L170.55,31.7Z"/><path d="M47.7,64.77H42l-1,2.37H38.21L43.52,55h2.85l5.26,12.18h-3Zm-.89-2.21-1.94-4.73-1.94,4.74Z"/><path d="M58.25,57.23a3.76,3.76,0,0,0,0,7.51,4.75,4.75,0,0,0,3.19-1.43l1.63,1.75a7.17,7.17,0,0,1-4.95,2.19,6.21,6.21,0,1,1,.08-12.4,7,7,0,0,1,4.84,2l-1.61,2a4.47,4.47,0,0,0-3.19-1.58"/><path d="M70.07,64.83A2.6,2.6,0,0,0,72.8,62V54.92h2.76V62c0,3.22-2.11,5.23-5.49,5.23s-5.57-2-5.58-5.22V54.93h2.77V62a2.64,2.64,0,0,0,2.81,2.82"/><path d="M85.78,64.72H80.1l-1,2.37H76.29L81.6,54.9h2.85l5.26,12.18h-3Zm-.9-2.21L83,57.78,81,62.52Z"/><path d="M96.33,57.18a3.76,3.76,0,0,0,0,7.51,4.77,4.77,0,0,0,3.19-1.43L101.16,65a7.23,7.23,0,0,1-5,2.19,6.21,6.21,0,1,1,.09-12.4,7,7,0,0,1,4.84,2l-1.61,1.95a4.47,4.47,0,0,0-3.19-1.58"/><path d="M108.15,64.78A2.58,2.58,0,0,0,110.87,62V54.87h2.77V62c0,3.22-2.11,5.23-5.49,5.23s-5.57-2-5.58-5.22V54.88h2.77V62a2.64,2.64,0,0,0,2.81,2.82"/><polygon points="118.87 54.85 118.88 64.64 124.14 64.64 124.14 67.04 116.12 67.05 116.1 54.86 118.87 54.85"/><polygon points="134.81 54.83 134.81 57.17 131.06 57.17 131.08 67.03 128.31 67.03 128.29 57.18 124.56 57.18 124.56 54.85 134.81 54.83"/><path d="M141.65,64.73a2.58,2.58,0,0,0,2.73-2.82V54.82h2.77V61.9c0,3.23-2.11,5.23-5.49,5.24s-5.58-2-5.58-5.22V54.83h2.77v7.09a2.63,2.63,0,0,0,2.8,2.81"/><path d="M157.16,67l-1.95-3.48h-2.82V67h-2.77V54.81h5.32c3.21,0,5,1.52,5,4.22A4,4,0,0,1,157.68,63l2.61,4Zm-4.78-5.77h2.56c1.53,0,2.4-.69,2.4-2.09s-.88-2-2.4-2h-2.56Z"/><path d="M170.39,64.61h-5.67l-1,2.37H160.9l5.31-12.2h2.86L174.32,67h-3Zm-.89-2.21-1.93-4.74-1.94,4.74Z"/></g><path class="ffda8d13-93ba-4fa5-b49e-9df8fb35e86f" d="M36.17,38.62l-17.42,0-2.58,6.9H3L21.35,2.38l13.17,0L52.36,45.49l-13.66,0Zm-3.4-9.35L27.58,15.18l-5.27,14.1Z"/><path class="ffda8d13-93ba-4fa5-b49e-9df8fb35e86f" d="M84.39,11.78c-2.15,0-3.57.74-3.57,2.34,0,6.34,22.53,2.56,22.56,18.13,0,9.17-8.11,13.55-17.77,13.56A35.21,35.21,0,0,1,64.85,39l4.79-9.73c4.44,3.75,11.64,6.57,16.07,6.56,2.71,0,4.44-.93,4.43-2.9,0-6.52-22.53-2.37-22.55-17.57,0-8.31,7.06-13.61,17.83-13.63a34.72,34.72,0,0,1,18,5l-4.72,9.86C94.3,14,88,11.77,84.39,11.78"/><rect class="ffda8d13-93ba-4fa5-b49e-9df8fb35e86f" x="120.35" y="2.24" width="12.8" height="43.15" transform="translate(-0.03 0.17) rotate(-0.08)"/><path class="ffda8d13-93ba-4fa5-b49e-9df8fb35e86f" d="M181.8,38.42l-17.42,0-2.57,6.89-13.18,0L167,2.19l13.17,0L198,45.29l-13.66,0Zm-3.4-9.35L173.22,15l-5.28,14.11Z"/><path d="M45.09,62.16H39.42l-1,2.37H35.6l5.31-12.2h2.85L49,64.52h-3ZM44.19,60l-1.93-4.74L40.32,60Z"/><path d="M55.64,54.62a3.76,3.76,0,0,0,0,7.51,4.77,4.77,0,0,0,3.19-1.43l1.63,1.75a7.23,7.23,0,0,1-5,2.19,6.21,6.21,0,1,1,.09-12.4,7,7,0,0,1,4.84,2l-1.61,2a4.47,4.47,0,0,0-3.19-1.58"/><path d="M67.46,62.22a2.58,2.58,0,0,0,2.72-2.83V52.3h2.76v7.09c0,3.22-2.11,5.23-5.49,5.23s-5.57-2-5.58-5.22V52.32h2.77V59.4a2.64,2.64,0,0,0,2.81,2.82"/><path d="M83.17,62.11H77.49l-1,2.37H73.68L79,52.29h2.85l5.25,12.18h-3Zm-.9-2.21-1.93-4.74L78.4,59.9Z"/><path d="M93.72,54.57a3.76,3.76,0,0,0,0,7.51,4.77,4.77,0,0,0,3.19-1.43l1.63,1.75a7.23,7.23,0,0,1-5,2.19,6.21,6.21,0,1,1,.09-12.4,6.94,6.94,0,0,1,4.84,2l-1.61,1.95a4.47,4.47,0,0,0-3.19-1.58"/><path d="M105.53,62.17a2.59,2.59,0,0,0,2.73-2.83V52.25H111v7.09c0,3.22-2.11,5.23-5.49,5.23s-5.57-2-5.58-5.22V52.26h2.77v7.09a2.64,2.64,0,0,0,2.8,2.82"/><polygon points="116.26 52.24 116.27 62.03 121.53 62.02 121.53 64.43 113.51 64.44 113.49 52.25 116.26 52.24"/><polygon points="132.2 52.22 132.2 54.55 128.45 54.56 128.47 64.42 125.7 64.42 125.68 54.56 121.95 54.57 121.95 52.23 132.2 52.22"/><path d="M139,62.12a2.58,2.58,0,0,0,2.73-2.82V52.21h2.77v7.08c0,3.22-2.12,5.23-5.5,5.23s-5.57-2-5.57-5.21V52.22h2.77V59.3A2.65,2.65,0,0,0,139,62.12"/><path d="M154.54,64.38,152.6,60.9h-2.82v3.48H147V52.2h5.32c3.21,0,5,1.53,5,4.23a4,4,0,0,1-2.29,3.94l2.62,4Zm-4.77-5.77h2.56c1.52,0,2.4-.7,2.4-2.09s-.88-2-2.41-2h-2.55Z"/><path d="M167.78,62h-5.67l-1,2.37h-2.86l5.31-12.2h2.86l5.25,12.18h-3Zm-.89-2.21L165,55.05,163,59.79Z"/></g></g></svg>