<svg xmlns="http://www.w3.org/2000/svg" xmlns:xlink="http://www.w3.org/1999/xlink" viewBox="0 0 32 32"><defs><style>.eea39526-24a6-4a0d-8b34-fe9167a3347e{fill:none;}.b201fcb0-0dd5-4426-84a8-110b4eaef5e2{isolation:isolate;}.a3691e17-fa26-43bd-bd57-bdc2f8cfe3cb{opacity:0.3;mix-blend-mode:multiply;}.b3b729b4-a8cd-404a-8c76-f6f67f0a9c8e{clip-path:url(#adece6e5-120d-4349-9b71-825de09f8c66);}.fedc4bc2-1245-4408-81fa-0cf62210d87e{clip-path:url(#be649089-4380-4b07-ab32-5a53e540bd5b);}.f546dca1-cf9b-4dbb-a669-2cb74dae1f74{opacity:0.42;}.ff35b4d2-9228-410b-a74f-54ae051734a7{opacity:0.6;}.ff3409ee-9d74-446b-a6ce-b691d8c72cef{fill:#03a09a;}.f2d40b29-a1a1-4ab1-8f64-b3d8313b8063{fill:#fff;fill-rule:evenodd;}</style><clipPath id="adece6e5-120d-4349-9b71-825de09f8c66"><path class="eea39526-24a6-4a0d-8b34-fe9167a3347e" d="M252.45-1.5h0a166,166,0,0,0,166-165.95V-364H86.5v196.59A166,166,0,0,0,252.45-1.5Z"/></clipPath><clipPath id="be649089-4380-4b07-ab32-5a53e540bd5b"><path class="eea39526-24a6-4a0d-8b34-fe9167a3347e" d="M249.45-4.5h0a166,166,0,0,0,166-165.95V-367H83.5v196.59A166,166,0,0,0,249.45-4.5Z"/></clipPath></defs><g class="b201fcb0-0dd5-4426-84a8-110b4eaef5e2"><g id="acda3ee1-d972-4fd3-85e6-7e35b168823b" data-name="Capa 1"><g class="a3691e17-fa26-43bd-bd57-bdc2f8cfe3cb"><g class="b3b729b4-a8cd-404a-8c76-f6f67f0a9c8e"><path d="M44.55,34.39l.8,0c0-.28,0-.55,0-.82h0a15.23,15.23,0,0,0-.39-2.8h0c-.06-.28-.14-.55-.22-.82h0a16.05,16.05,0,0,0-1.2-3h0c-.18-.34-.37-.67-.57-1h0a15.91,15.91,0,0,0-13.5-7.5v.82A15.12,15.12,0,0,1,44.55,34.39Z"/><path d="M40.94,34.42h.82A12.32,12.32,0,0,0,29.45,22.11v.81A11.51,11.51,0,0,1,40.94,34.42Z"/><path d="M37.33,34.42h.82a8.71,8.71,0,0,0-8.7-8.71v.82A7.89,7.89,0,0,1,37.33,34.42Z"/><path d="M33.73,34.42h.81a5.1,5.1,0,0,0-5.09-5.1v.82A4.28,4.28,0,0,1,33.73,34.42Z"/><path d="M45.36,3.38a15.13,15.13,0,0,1,15.1,15.11h0v0l.81,0A15.94,15.94,0,0,0,41.75,3h0l-.83.22h0a16.21,16.21,0,0,0-3,1.19h0c-.34.18-.68.37-1,.57h0a16,16,0,0,0-5.12,5.12h0c-.2.33-.39.66-.57,1h0a15.39,15.39,0,0,0-1.2,3h0c-.08.27-.15.54-.22.82h0a15.23,15.23,0,0,0-.39,2.8h0c0,.25,0,.51,0,.76v.06l.8,0A15.13,15.13,0,0,1,45.36,3.38Z"/><path d="M29.45,18.49Z"/><polygon points="30.25 18.49 30.25 18.49 30.25 18.49 30.25 18.49 30.25 18.49"/><path d="M30.25,18.51v0h-.78C29.73,18.49,30,18.49,30.25,18.51Z"/><path d="M44.55,2.54l.8,0c0-.28,0-.55,0-.82h0A15.23,15.23,0,0,0,45-1.06h0c-.06-.28-.14-.55-.22-.82h0a16.05,16.05,0,0,0-1.2-3h0c-.18-.34-.37-.67-.57-1h0a15.91,15.91,0,0,0-13.5-7.5v.81A15.13,15.13,0,0,1,44.55,2.54Z"/><path d="M40.94,2.57h.82A12.32,12.32,0,0,0,29.45-9.74v.81A11.51,11.51,0,0,1,40.94,2.57Z"/><path d="M37.33,2.57h.82a8.71,8.71,0,0,0-8.7-8.71v.82A7.89,7.89,0,0,1,37.33,2.57Z"/><path d="M33.73,2.57h.81a5.1,5.1,0,0,0-5.09-5.1v.82A4.28,4.28,0,0,1,33.73,2.57Z"/><path d="M29.46,17.67h0v.76c0-.25,0-.51,0-.76Z"/><path d="M29.86,14.87c.07-.28.14-.55.22-.82h-.63v.82h.41Z"/><path d="M31.28,11.08c.18-.34.37-.67.57-1h0a7.86,7.86,0,0,1-2.39.37v.81a8.45,8.45,0,0,0,1.82-.19Z"/><path d="M34.54,2.57h-.81a4.28,4.28,0,0,1-4.28,4.28v.82A5.1,5.1,0,0,0,34.54,2.57Z"/><path d="M30.25,18.49h0v0h0l-.8,0h.8Z"/></g></g><g class="fedc4bc2-1245-4408-81fa-0cf62210d87e"><g class="f546dca1-cf9b-4dbb-a669-2cb74dae1f74"><g class="ff35b4d2-9228-410b-a74f-54ae051734a7"><path class="ff3409ee-9d74-446b-a6ce-b691d8c72cef" d="M42.36,32.24a15.12,15.12,0,0,1,15.1,15.1h0v0l.81,0A15.94,15.94,0,0,0,38.75,31.83h0l-.83.22h0a15.56,15.56,0,0,0-3,1.2h0c-.34.18-.68.37-1,.58h0a16,16,0,0,0-5.12,5.12h0c-.2.33-.39.66-.57,1h0a15.39,15.39,0,0,0-1.2,3h0c-.08.27-.15.54-.22.82h0a15.35,15.35,0,0,0-.39,2.8h0c0,.26,0,.51,0,.76v.06l.8,0A15.12,15.12,0,0,1,42.36,32.24Z"/><path class="ff3409ee-9d74-446b-a6ce-b691d8c72cef" d="M41.55,31.39l.8,0c0-.28,0-.55,0-.82h0a15.23,15.23,0,0,0-.39-2.8h0c-.06-.28-.14-.55-.22-.82h0a16.05,16.05,0,0,0-1.2-3h0c-.18-.34-.37-.67-.57-1h0a15.91,15.91,0,0,0-13.5-7.5v.82A15.12,15.12,0,0,1,41.55,31.39Z"/><path class="ff3409ee-9d74-446b-a6ce-b691d8c72cef" d="M37.94,31.42h.82A12.32,12.32,0,0,0,26.45,19.11v.81A11.51,11.51,0,0,1,37.94,31.42Z"/><path class="ff3409ee-9d74-446b-a6ce-b691d8c72cef" d="M34.33,31.42h.82a8.71,8.71,0,0,0-8.7-8.71v.82A7.89,7.89,0,0,1,34.33,31.42Z"/><path class="ff3409ee-9d74-446b-a6ce-b691d8c72cef" d="M30.73,31.42h.81a5.1,5.1,0,0,0-5.09-5.1v.82A4.28,4.28,0,0,1,30.73,31.42Z"/><path class="ff3409ee-9d74-446b-a6ce-b691d8c72cef" d="M31.54,31.42h-.81a4.28,4.28,0,0,1-4.28,4.28v.82A5.1,5.1,0,0,0,31.54,31.42Z"/><path class="ff3409ee-9d74-446b-a6ce-b691d8c72cef" d="M42.36.38a15.13,15.13,0,0,1,15.1,15.11h0v0l.81,0A15.94,15.94,0,0,0,38.75,0h0L37.92.2h0a16.21,16.21,0,0,0-3,1.19h0c-.34.18-.68.37-1,.57h0a16,16,0,0,0-5.12,5.12h0c-.2.33-.39.66-.57,1h0a15.39,15.39,0,0,0-1.2,3h0c-.08.27-.15.54-.22.82h0a15.23,15.23,0,0,0-.39,2.8h0c0,.25,0,.51,0,.76v.06l.8,0A15.13,15.13,0,0,1,42.36.38Z"/><path class="ff3409ee-9d74-446b-a6ce-b691d8c72cef" d="M26.45,15.49Z"/><polygon class="ff3409ee-9d74-446b-a6ce-b691d8c72cef" points="27.25 15.49 27.25 15.49 27.25 15.49 27.25 15.49 27.25 15.49"/><path class="ff3409ee-9d74-446b-a6ce-b691d8c72cef" d="M42.36,4a11.51,11.51,0,0,1,11.49,11.5h.82a12.32,12.32,0,0,0-24.63,0h.82A11.51,11.51,0,0,1,42.36,4Z"/><path class="ff3409ee-9d74-446b-a6ce-b691d8c72cef" d="M27.25,15.51v0h-.78C26.73,15.49,27,15.49,27.25,15.51Z"/><path class="ff3409ee-9d74-446b-a6ce-b691d8c72cef" d="M30.86,15.49H30c0,.14,0,.27,0,.41l.83.22c0-.21,0-.42,0-.63Z"/><path class="ff3409ee-9d74-446b-a6ce-b691d8c72cef" d="M26.46,14.67h0v.76c0-.25,0-.51,0-.76Z"/><path class="ff3409ee-9d74-446b-a6ce-b691d8c72cef" d="M26.86,11.87c.07-.28.14-.55.22-.82h-.63v.82h.41Z"/><path class="ff3409ee-9d74-446b-a6ce-b691d8c72cef" d="M28.28,8.08c.18-.34.37-.67.57-1h0a7.86,7.86,0,0,1-2.39.37v.81a8.45,8.45,0,0,0,1.82-.19Z"/><path class="ff3409ee-9d74-446b-a6ce-b691d8c72cef" d="M31.54-.43h-.81a4.28,4.28,0,0,1-4.28,4.28v.82A5.1,5.1,0,0,0,31.54-.43Z"/><path class="ff3409ee-9d74-446b-a6ce-b691d8c72cef" d="M27.25,15.49h0v0h0l-.8,0h.8Z"/></g></g></g><rect class="ff3409ee-9d74-446b-a6ce-b691d8c72cef" x="0.87" y="1.03" width="30" height="30" rx="3.28"/><path class="f2d40b29-a1a1-4ab1-8f64-b3d8313b8063" d="M14,17V27.31a.27.27,0,0,0,.27.27h3.85a.27.27,0,0,0,.27-.27V16.78h2.79a.27.27,0,0,0,.27-.24l.26-3.18a.27.27,0,0,0-.26-.29H18.39V10.82a1,1,0,0,1,.95-1h2.15a.27.27,0,0,0,.27-.27V6.42a.27.27,0,0,0-.27-.27H17.86A3.86,3.86,0,0,0,14,10v3.06H12.08a.27.27,0,0,0-.27.27v3.17a.27.27,0,0,0,.27.27H14Z"/></g></g></svg>