<svg xmlns="http://www.w3.org/2000/svg" xmlns:xlink="http://www.w3.org/1999/xlink" viewBox="0 0 170 215"><defs><style>.b5c09e49-7512-450a-9743-b914fc7285ff{mask:url(#a3aa2744-ae7e-4ad9-9a1f-e0d1403bad4f);filter:url(#a48e5955-ef94-45ee-bcf2-820b0c8e033e);}.a5e1abce-9d52-4f97-96a0-eba7fa34bde7,.aa1d9a9b-9a59-4ecf-81cf-358db92c3dbc,.aa672d5b-3ce3-481e-a782-77bde2838c60,.b9770673-e217-4a5d-b7f4-c4a2278a97aa{mix-blend-mode:multiply;}.b9770673-e217-4a5d-b7f4-c4a2278a97aa{fill:url(#aed184c7-c98e-4714-ae7e-bb05d782419b);}.b1020447-943a-4ef5-afb3-b9fa3245bbd3{mask:url(#bce85f54-fd99-41c6-9bf3-e99e6b294892);filter:url(#eba578ec-8665-4e03-9bfa-4d886bfe7a3c);}.aa1d9a9b-9a59-4ecf-81cf-358db92c3dbc{fill:url(#b43024e5-5c28-4208-a555-c06b1d2caeb1);}.ec354ca9-f4ab-4141-86bd-715efb42ab3d{isolation:isolate;}.e48f3530-11e0-4b23-958e-2bbe09102fac{fill:#e6e7e8;}.ba528a22-e4e2-447f-b0ad-2ce24cbf87b0{fill:#e5e6e7;}.ae3d6691-50d4-4ce9-add6-3f49f58c848d{fill:#e3e5e6;}.f92fbfa4-d256-4c82-ae01-f2b090bdd80a{fill:#e2e3e4;}.a0aa1740-f267-4c58-81d1-36ef1c18b3ec{fill:#e1e2e3;}.ba2a3a11-0ca3-4bfe-993e-019f335c9ce9{fill:#e0e1e2;}.f221398d-e636-408d-ba0d-fcda12d20661{fill:#dee0e1;}.e3e9c3e2-7e35-4214-bb46-c2366df9cd8f{fill:#dddee0;}.b3e52172-4802-4c95-84b2-4ca2c67a9b15{fill:#dcddde;}.b01f5206-68a3-417f-b80d-30f994c840e4{fill:#dbdcdd;}.b4c6ae0b-b652-4fb3-a7f8-5c35382662f6{fill:#d9dbdc;}.fe45af4c-8778-4086-b54d-63dbae4c0177{fill:#d8d9db;}.be6b80c8-5ae3-472c-a6f7-9222101256c5{fill:#d7d8da;}.a9e086f4-4fb0-480f-a43b-98718f515fe5{fill:#d6d7d8;}.a48642d3-4b92-4042-b91a-473d23be9788{fill:#d4d6d7;}.aa3b0258-dcf1-4523-869b-3bb6af2789ed{fill:#d3d4d6;}.fa332e21-778b-427f-99a0-ac51d37d0b5e{fill:#d2d3d5;}.f9afca39-6965-407e-ada9-594c40c291ce{fill:#d1d2d4;}.be8e9da0-bc0b-4427-80fd-36f133cda329{fill:#cfd1d2;}.ac1b9d32-9550-4f35-b073-18491ca171ef{fill:#ced0d1;}.f9bccd14-be4b-470d-a548-6412e806d987{fill:#cdced0;}.fdf84b6f-b792-414e-8a6b-9f63473c4311{fill:#cccdcf;}.b8a5fd85-1613-40d2-a430-7c7753703e5d{fill:#caccce;}.f9d6af97-659b-4197-9595-7c655739650e{fill:#c9cbcc;}.fd7d50f3-e7d6-461c-a7db-e9240639768a{fill:#c8c9cb;}.b1735177-4560-4501-9b93-f4341753921e{fill:#c7c8ca;}.fef66ba0-44c3-4b22-9f09-346c8a5a4c3d{fill:#c5c7c9;}.bd4bde38-8b6d-4b52-a628-8f1ffdbee83c{fill:#c4c6c8;}.bd34c29c-3df7-40d6-a69f-8440d987dac5{fill:#c3c4c7;}.aa64ccbb-161e-45d7-a910-365119d80124{fill:#c2c3c5;}.b24f86ca-eb08-41eb-8cbd-3fa53b8762a9{fill:#c0c2c4;}.adcea6d0-3449-413b-bb1d-2f5b99e19031{fill:#bfc1c3;}.a828635e-985b-422b-9e0f-c3e6bbe194de{fill:#bebfc2;}.b8822ddd-5993-4fc0-b97f-583aa862c973{fill:#bdbec1;}.aea70a8e-6193-4324-bb4b-1bb7f202ef78{fill:#bbbdbf;}.b8b879b8-43ed-4ddc-850f-2092e965ec00{fill:#babcbe;}.b4285936-438c-4dc7-b0aa-3ff1e08c033b{fill:#b9bbbd;}.bd179c84-1ca3-4283-9b65-a3e5b3379ddf{fill:#b8b9bc;}.b2e090f3-3009-4d2e-ae75-b49fa1e19ae3{fill:#b6b8bb;}.a4b737f2-24ca-48c9-bb7f-d4325ce045b8{fill:#b5b7b9;}.bbe7fef2-5b51-4049-acc4-9d2e4cc7b749{fill:#b4b6b8;}.b9fa427f-8888-4007-8327-0c141343807d{fill:#b3b4b7;}.e9dd6c93-9b8e-461e-9c77-c6e7d5ed001f{fill:#b1b3b6;}.fbf6b2c8-da66-4c47-9a0a-19d5adcec54f{fill:#b0b2b5;}.bcda9241-f5aa-4409-ad36-560644d9ca55{fill:#afb1b3;}.be3dbb2d-b98d-4a5d-863b-81398cd6139f{fill:#aeafb2;}.bd166678-971f-4b39-a4ca-a24e22252ce9{fill:#acaeb1;}.a9ff75c8-0e77-46b3-95d9-baa8110932eb{fill:#abadb0;}.f908795e-1cae-4451-b892-729c8602c00d{fill:#aaacaf;}.a6d09db2-6b94-467f-a750-2d653c597a45{fill:#a9aaad;}.b841b422-4104-47e0-bdd3-679213fea10a{fill:#a7a9ac;}.bf87ec9a-0865-46b7-a038-57687f687e07{fill:#a6a8ab;}.a09b2a07-83dd-4baa-b7c6-6152f6983c36,.be00ec29-db39-4d49-bebe-feadabf167c4{fill:#fff;}.e1f31bdb-c04d-4595-baf9-9214a3a119bd{mask:url(#a6e206e6-3290-49ca-843c-5831146728cf);}.aa672d5b-3ce3-481e-a782-77bde2838c60{opacity:0.25;fill:url(#e0c3d80b-9647-428e-921e-d112439bcae8);}.f969c51e-b664-4e3e-91e0-17b38ebd3e8a{mask:url(#f59cbc12-a300-4224-8589-19a3827695b2);}.a5e1abce-9d52-4f97-96a0-eba7fa34bde7{opacity:0.75;fill:url(#b4d78f4b-09d0-4c8b-99fc-f7b41fb907d0);}.ff2862a6-723b-4b88-9b69-59b2c9d35665{fill:url(#b03199c8-6f04-492c-9566-5ff735df8e28);}.a09b2a07-83dd-4baa-b7c6-6152f6983c36{font-size:18.14px;font-family:BebasNeue-Regular, Bebas Neue;}.ba2bcfb5-8ff8-4cce-9b07-da7ff04e616d{letter-spacing:0em;}.e98f65ba-518f-4c44-89f4-c969e472615d{letter-spacing:0em;}.b53e8eac-676d-4278-acb1-b7d1a708dbb2{letter-spacing:0em;}.e0fcb455-c47c-4626-a4d8-31fb1b8167bd{letter-spacing:0em;}.b42ba42a-1bf4-4712-aad4-173a722a9ce1{letter-spacing:-0.08em;}.a6840721-b769-45c4-a562-717b0d46e305{filter:url(#af3c6de9-5660-429c-88fc-5c04efbea4be);}.b595c4f9-f6cb-453c-b80b-dabc2ffb6b46{filter:url(#f42faa99-4d38-4c7e-a9f9-34dc4c7a7595);}</style><filter id="f42faa99-4d38-4c7e-a9f9-34dc4c7a7595" x="16.26" y="-10126.5" width="54.88" height="32766" filterUnits="userSpaceOnUse" color-interpolation-filters="sRGB"><feFlood flood-color="#fff" result="bg"/><feBlend in="SourceGraphic" in2="bg"/></filter><mask id="a3aa2744-ae7e-4ad9-9a1f-e0d1403bad4f" x="16.26" y="-10126.5" width="54.88" height="32766" maskUnits="userSpaceOnUse"><g class="b595c4f9-f6cb-453c-b80b-dabc2ffb6b46"/></mask><linearGradient id="aed184c7-c98e-4714-ae7e-bb05d782419b" x1="128.56" y1="-10.15" x2="154.51" y2="-10.15" gradientTransform="matrix(0.98, -0.19, 0.19, 0.98, -88.28, 146.12)" gradientUnits="userSpaceOnUse"><stop offset="0" stop-color="#fff"/><stop offset="0.18" stop-color="#c4c4c4"/><stop offset="0.4" stop-color="#7f7f7f"/><stop offset="0.6" stop-color="#484848"/><stop offset="0.78" stop-color="#212121"/><stop offset="0.92" stop-color="#090909"/><stop offset="1"/></linearGradient><filter id="af3c6de9-5660-429c-88fc-5c04efbea4be" x="16.26" y="-10126.5" width="46.33" height="32766" filterUnits="userSpaceOnUse" color-interpolation-filters="sRGB"><feFlood flood-color="#fff" result="bg"/><feBlend in="SourceGraphic" in2="bg"/></filter><mask id="bce85f54-fd99-41c6-9bf3-e99e6b294892" x="16.26" y="-10126.5" width="46.33" height="32766" maskUnits="userSpaceOnUse"><g class="a6840721-b769-45c4-a562-717b0d46e305"/></mask><linearGradient id="b43024e5-5c28-4208-a555-c06b1d2caeb1" x1="116.48" y1="-10.15" x2="132.89" y2="-10.15" gradientTransform="matrix(0.98, -0.19, 0.19, 0.98, -88.28, 146.12)" gradientUnits="userSpaceOnUse"><stop offset="0" stop-color="#fff"/><stop offset="0.09" stop-color="#f7f7f7"/><stop offset="0.22" stop-color="#e0e0e0"/><stop offset="0.39" stop-color="#bababa"/><stop offset="0.58" stop-color="#868686"/><stop offset="0.8" stop-color="#454545"/><stop offset="1"/></linearGradient><filter id="a48e5955-ef94-45ee-bcf2-820b0c8e033e" x="16.26" y="21.02" width="54.88" height="178.8" filterUnits="userSpaceOnUse" color-interpolation-filters="sRGB"><feFlood flood-color="#fff" result="bg"/><feBlend in="SourceGraphic" in2="bg"/></filter><mask id="a6e206e6-3290-49ca-843c-5831146728cf" x="16.26" y="21.02" width="54.88" height="178.8" maskUnits="userSpaceOnUse"><g class="b5c09e49-7512-450a-9743-b914fc7285ff"><path class="b9770673-e217-4a5d-b7f4-c4a2278a97aa" d="M37.56,21C38.3,25.34,39.5,32,41.2,40c8.34,39.27,14,42.22,18.81,67.54s.73,30,7.5,69.33c1.39,8.05,2.72,14.63,3.63,18.88l-21.3,4.09L16.26,25.11Z"/></g></mask><linearGradient id="e0c3d80b-9647-428e-921e-d112439bcae8" x1="128.56" y1="-10.15" x2="154.51" y2="-10.15" gradientTransform="matrix(0.98, -0.19, 0.19, 0.98, -88.28, 146.12)" gradientUnits="userSpaceOnUse"><stop offset="0"/><stop offset="0.18" stop-color="#3b3b3b"/><stop offset="0.4" stop-color="gray"/><stop offset="0.6" stop-color="#b7b7b7"/><stop offset="0.78" stop-color="#dedede"/><stop offset="0.92" stop-color="#f6f6f6"/><stop offset="1" stop-color="#fff"/></linearGradient><filter id="eba578ec-8665-4e03-9bfa-4d886bfe7a3c" x="16.26" y="22.66" width="46.33" height="177.16" filterUnits="userSpaceOnUse" color-interpolation-filters="sRGB"><feFlood flood-color="#fff" result="bg"/><feBlend in="SourceGraphic" in2="bg"/></filter><mask id="f59cbc12-a300-4224-8589-19a3827695b2" x="16.26" y="22.66" width="46.33" height="177.16" maskUnits="userSpaceOnUse"><g class="b1020447-943a-4ef5-afb3-b9fa3245bbd3"><path class="aa1d9a9b-9a59-4ecf-81cf-358db92c3dbc" d="M29,22.66c.77,4.31,2,10.93,3.64,19,8,39.33,11.7,42.66,16.55,68s2.68,29.64,9.76,68.9c1.45,8,2.76,14.62,3.63,18.88l-12.76,2.45L16.26,25.11Z"/></g></mask><linearGradient id="b4d78f4b-09d0-4c8b-99fc-f7b41fb907d0" x1="116.48" y1="-10.15" x2="132.89" y2="-10.15" gradientTransform="matrix(0.98, -0.19, 0.19, 0.98, -88.28, 146.12)" gradientUnits="userSpaceOnUse"><stop offset="0" stop-color="#221f1f"/><stop offset="0.09" stop-color="#2a2727"/><stop offset="0.24" stop-color="#413e3e"/><stop offset="0.43" stop-color="#666464"/><stop offset="0.64" stop-color="#999797"/><stop offset="0.87" stop-color="#d9d9d9"/><stop offset="1" stop-color="#fff"/></linearGradient><radialGradient id="b03199c8-6f04-492c-9566-5ff735df8e28" cx="94.12" cy="94.59" r="45.12" gradientUnits="userSpaceOnUse"><stop offset="0" stop-color="#ce8569"/><stop offset="0.18" stop-color="#c77555"/><stop offset="0.73" stop-color="#b4461b"/><stop offset="1" stop-color="#ad3405"/></radialGradient></defs><g class="ec354ca9-f4ab-4141-86bd-715efb42ab3d"><g id="fc0ff5d5-8187-4adb-88ea-8b1662ada68b" data-name="Capa 1"><rect class="e48f3530-11e0-4b23-958e-2bbe09102fac" x="16.52" y="22.72" width="127.29" height="181.48" rx="10.12" transform="translate(-19.97 17.17) rotate(-10.88)"/><path class="ba528a22-e4e2-447f-b0ad-2ce24cbf87b0" d="M10.48,34.29,115.64,14.08a10.19,10.19,0,0,1,11.93,7.81L158,180.24a10.21,10.21,0,0,1-7.82,11.93L45,212.38a10.2,10.2,0,0,1-11.93-7.81L2.66,46.22A10.21,10.21,0,0,1,10.48,34.29Z"/><path class="ae3d6691-50d4-4ce9-add6-3f49f58c848d" d="M10.48,34.13,115.69,13.91c5.27-1,11,2.32,12,7.59l30.43,158.37c1,5.27-2.32,11-7.59,12L45.33,212.09c-5.27,1-11-2.32-12-7.6L2.88,46.13C1.87,40.85,5.2,35.14,10.48,34.13Z"/><path class="f92fbfa4-d256-4c82-ae01-f2b090bdd80a" d="M10.48,34,115.73,13.74c5.17-1,11.1,2.21,12.09,7.38L158.26,179.5c1,5.16-2.21,11.08-7.38,12.07L45.63,211.8c-5.17,1-11.1-2.21-12.09-7.38L3.1,46C2.11,40.88,5.31,35,10.48,34Z"/><path class="a0aa1740-f267-4c58-81d1-36ef1c18b3ec" d="M10.48,33.81l105.3-20.24c5.06-1,11.19,2.1,12.17,7.16l30.44,158.39c1,5.06-2.11,11.18-7.16,12.15L45.93,211.51c-5.06,1-11.2-2.1-12.17-7.16L3.32,46C2.35,40.9,5.42,34.78,10.48,33.81Z"/><path class="ba2a3a11-0ca3-4bfe-993e-019f335c9ce9" d="M10.48,33.65,115.82,13.4c5-1,11.3,2,12.25,6.94l30.45,158.41c.95,4.95-2,11.27-7,12.22L46.23,211.22c-4.95.95-11.3-2-12.25-6.95L3.54,45.87C2.58,40.92,5.53,34.6,10.48,33.65Z"/><path class="f221398d-e636-408d-ba0d-fcda12d20661" d="M10.49,33.48,115.87,13.23c4.84-.93,11.39,1.88,12.32,6.72l30.45,158.43c.94,4.84-1.88,11.36-6.73,12.29L46.53,210.93c-4.84.93-11.4-1.88-12.33-6.73L3.75,45.78C2.82,40.94,5.64,34.41,10.49,33.48Z"/><path class="e3e9c3e2-7e35-4214-bb46-c2366df9cd8f" d="M10.49,33.32,115.91,13.06c4.74-.91,11.5,1.77,12.41,6.51L158.77,178c.91,4.74-1.78,11.46-6.51,12.37L46.83,210.64c-4.73.91-11.5-1.78-12.41-6.51L4,45.69C3.06,41,5.75,34.23,10.49,33.32Z"/><path class="b3e52172-4802-4c95-84b2-4ca2c67a9b15" d="M10.49,33.16,116,12.89c4.62-.89,11.59,1.66,12.48,6.29L158.9,177.63c.89,4.63-1.67,11.56-6.3,12.44L47.13,210.35c-4.62.89-11.6-1.67-12.48-6.29L4.19,45.6C3.3,41,5.86,34.05,10.49,33.16Z"/><path class="b01f5206-68a3-417f-b80d-30f994c840e4" d="M10.49,33,116,12.72c4.52-.87,11.7,1.55,12.57,6.07L159,177.26c.86,4.52-1.57,11.65-6.09,12.52L47.43,210.06c-4.52.86-11.7-1.56-12.56-6.08L4.41,45.52C3.54,41,6,33.87,10.49,33Z"/><path class="b4c6ae0b-b652-4fb3-a7f8-5c35382662f6" d="M10.49,32.84,116,12.55c4.42-.85,11.8,1.44,12.65,5.85l30.46,158.48c.85,4.42-1.45,11.75-5.86,12.6L47.74,209.76c-4.42.85-11.81-1.44-12.65-5.85L4.63,45.43C3.78,41,6.08,33.69,10.49,32.84Z"/><path class="fe45af4c-8778-4086-b54d-63dbae4c0177" d="M10.49,32.68l105.6-20.3c4.3-.83,11.9,1.33,12.73,5.64l30.46,158.49c.83,4.31-1.34,11.84-5.65,12.67L48,209.47c-4.31.83-11.9-1.33-12.73-5.63L4.84,45.34C4,41,6.19,33.5,10.49,32.68Z"/><path class="be6b80c8-5ae3-472c-a6f7-9222101256c5" d="M10.5,32.51l105.63-20.3c4.2-.81,12,1.22,12.81,5.42l30.47,158.51c.8,4.2-1.24,11.93-5.43,12.74L48.34,209.18c-4.2.81-12-1.22-12.81-5.42L5.06,45.25C4.26,41.06,6.3,33.32,10.5,32.51Z"/><path class="a9e086f4-4fb0-480f-a43b-98718f515fe5" d="M10.5,32.35,116.18,12c4.09-.79,12.1,1.11,12.89,5.2l30.47,158.53c.78,4.09-1.13,12-5.22,12.81L48.64,208.89c-4.09.79-12.1-1.11-12.89-5.2L5.28,45.17C4.49,41.08,6.41,33.14,10.5,32.35Z"/><path class="a48642d3-4b92-4042-b91a-473d23be9788" d="M10.5,32.19,116.22,11.87c4-.77,12.21,1,13,5l30.47,158.54c.77,4-1,12.13-5,12.89L48.94,208.6c-4,.77-12.2-1-13-5L5.5,45.08C4.73,41.1,6.52,33,10.5,32.19Z"/><path class="aa3b0258-dcf1-4523-869b-3bb6af2789ed" d="M10.5,32,116.27,11.7c3.87-.74,12.3.89,13,4.77L159.79,175c.74,3.88-.91,12.22-4.78,13L49.24,208.31c-3.88.75-12.3-.89-13.05-4.77L5.72,45C5,41.12,6.63,32.77,10.5,32Z"/><path class="fa332e21-778b-427f-99a0-ac51d37d0b5e" d="M10.5,31.87,116.31,11.53c3.77-.72,12.41.78,13.13,4.55l30.48,158.57c.72,3.76-.8,12.31-4.57,13L49.54,208c-3.77.73-12.4-.78-13.13-4.55L5.93,44.9C5.21,41.14,6.73,32.59,10.5,31.87Z"/><path class="f9afca39-6965-407e-ada9-594c40c291ce" d="M10.5,31.71,116.36,11.36c3.66-.7,12.5.67,13.2,4.33L160,174.27c.71,3.66-.69,12.41-4.35,13.12L49.84,207.73c-3.66.71-12.5-.67-13.21-4.33L6.15,44.82C5.45,41.16,6.84,32.41,10.5,31.71Z"/><path class="be8e9da0-bc0b-4427-80fd-36f133cda329" d="M10.51,31.54,116.4,11.19c3.55-.68,12.61.56,13.29,4.12L160.17,173.9c.68,3.55-.58,12.5-4.13,13.19L50.14,207.44c-3.55.68-12.6-.56-13.29-4.11L6.37,44.73C5.69,41.18,7,32.23,10.51,31.54Z"/><path class="ac1b9d32-9550-4f35-b073-18491ca171ef" d="M10.51,31.38,116.45,11c3.44-.66,12.7.45,13.36,3.9L160.3,173.53c.66,3.44-.47,12.6-3.92,13.26L50.44,207.15c-3.44.66-12.7-.45-13.37-3.9L6.59,44.64C5.93,41.2,7.06,32,10.51,31.38Z"/><path class="f9bccd14-be4b-470d-a548-6412e806d987" d="M10.51,31.22l106-20.37c3.34-.64,12.81.34,13.45,3.68l30.49,158.63c.64,3.33-.37,12.69-3.71,13.33l-106,20.37c-3.34.64-12.8-.34-13.45-3.68L6.81,44.55C6.17,41.22,7.17,31.86,10.51,31.22Z"/><path class="fdf84b6f-b792-414e-8a6b-9f63473c4311" d="M10.51,31.06l106-20.38c3.23-.62,12.9.23,13.52,3.46l30.49,158.64c.62,3.23-.25,12.79-3.48,13.41L51,206.57c-3.23.62-12.9-.23-13.52-3.46L7,44.47C6.4,41.24,7.28,31.68,10.51,31.06Z"/><path class="b8a5fd85-1613-40d2-a430-7c7753703e5d" d="M10.51,30.9,116.58,10.51c3.12-.6,13,.12,13.61,3.25l30.49,158.65c.6,3.12-.15,12.88-3.27,13.48L51.34,206.28c-3.12.6-13-.12-13.6-3.25L7.24,44.38C6.64,41.26,7.39,31.5,10.51,30.9Z"/><path class="f9d6af97-659b-4197-9595-7c655739650e" d="M10.51,30.74l106.12-20.4c3-.58,13.1,0,13.68,3L160.81,172c.58,3,0,13-3.05,13.55L51.64,206c-3,.58-13.1,0-13.68-3L7.46,44.29C6.88,41.28,7.5,31.31,10.51,30.74Z"/><path class="fd7d50f3-e7d6-461c-a7db-e9240639768a" d="M10.51,30.57l106.16-20.4c2.91-.56,13.21-.1,13.77,2.81l30.5,158.68c.55,2.91.07,13.08-2.84,13.64L51.94,205.7c-2.9.56-13.2.09-13.76-2.81L7.68,44.21C7.12,41.3,7.61,31.13,10.51,30.57Z"/><path class="b1735177-4560-4501-9b93-f4341753921e" d="M10.52,30.41,116.71,10c2.8-.54,13.31-.2,13.85,2.59l30.5,158.7c.54,2.8.18,13.17-2.62,13.71L52.24,205.41c-2.79.54-13.3.2-13.84-2.6L7.9,44.12C7.36,41.32,7.72,31,10.52,30.41Z"/><path class="fef66ba0-44c3-4b22-9f09-346c8a5a4c3d" d="M10.52,30.25,116.76,9.83c2.69-.52,13.41-.31,13.93,2.38l30.5,158.71c.52,2.69.29,13.26-2.4,13.78L52.55,205.12c-2.7.51-13.41.31-13.93-2.38L8.11,44C7.6,41.34,7.83,30.77,10.52,30.25Z"/><path class="bd4bde38-8b6d-4b52-a628-8f1ffdbee83c" d="M10.52,30.09,116.8,9.66c2.59-.5,13.51-.42,14,2.16l30.51,158.72c.49,2.59.39,13.36-2.19,13.86L52.85,204.83c-2.59.49-13.51.42-14-2.16L8.33,43.94C7.84,41.36,7.94,30.59,10.52,30.09Z"/><path class="bd34c29c-3df7-40d6-a69f-8440d987dac5" d="M10.52,29.93,116.85,9.49c2.47-.48,13.61-.53,14.08,1.94l30.51,158.74c.48,2.48.51,13.45-2,13.93L53.15,204.54c-2.48.47-13.61.53-14.09-1.94L8.55,43.86C8.07,41.38,8.05,30.4,10.52,29.93Z"/><path class="aa64ccbb-161e-45d7-a910-365119d80124" d="M10.52,29.77,116.89,9.32c2.37-.45,13.71-.64,14.17,1.72L161.57,169.8c.46,2.37.62,13.55-1.75,14L53.45,204.25c-2.37.45-13.71.64-14.17-1.73L8.77,43.77C8.31,41.4,8.16,30.22,10.52,29.77Z"/><path class="b24f86ca-eb08-41eb-8cbd-3fa53b8762a9" d="M10.52,29.6,116.94,9.15c2.26-.43,13.81-.75,14.24,1.51L161.7,169.43c.43,2.26.72,13.64-1.54,14.07L53.75,204c-2.26.43-13.81.75-14.25-1.51L9,43.68C8.55,41.42,8.26,30,10.52,29.6Z"/><path class="adcea6d0-3449-413b-bb1d-2f5b99e19031" d="M10.53,29.44,117,9c2.16-.41,13.91-.86,14.33,1.29l30.52,158.78c.41,2.16.83,13.74-1.33,14.15L54.05,203.67c-2.15.41-13.91.86-14.33-1.29L9.2,43.59C8.79,41.44,8.37,29.86,10.53,29.44Z"/><path class="a828635e-985b-422b-9e0f-c3e6bbe194de" d="M10.53,29.28,117,8.81c2-.39,14-1,14.4,1.07L162,168.68c.4,2,.94,13.83-1.1,14.23L54.35,203.38c-2.05.39-14,1-14.41-1.08L9.42,43.51C9,41.46,8.48,29.67,10.53,29.28Z"/><path class="b8822ddd-5993-4fc0-b97f-583aa862c973" d="M10.53,29.12,117.07,8.64c1.94-.37,14.11-1.08,14.49.85l30.52,158.82c.37,1.93,1,13.92-.89,14.3L54.65,203.08c-1.94.38-14.11,1.09-14.49-.85L9.64,43.42C9.27,41.48,8.59,29.49,10.53,29.12Z"/><path class="aea70a8e-6193-4324-bb4b-1bb7f202ef78" d="M10.53,29,117.12,8.47c1.83-.35,14.21-1.19,14.56.64l30.53,158.82c.35,1.83,1.16,14-.67,14.38L55,202.79c-1.83.36-14.21,1.2-14.56-.63L9.86,43.33C9.51,41.5,8.7,29.31,10.53,29Z"/><path class="b8b879b8-43ed-4ddc-850f-2092e965ec00" d="M10.53,28.8,117.16,8.3c1.72-.33,14.32-1.3,14.65.42l30.53,158.84c.33,1.72,1.26,14.12-.46,14.45L55.25,202.5c-1.72.33-14.31,1.31-14.64-.41L10.08,43.24C9.75,41.52,8.81,29.13,10.53,28.8Z"/><path class="b4285936-438c-4dc7-b0aa-3ff1e08c033b" d="M10.53,28.63,117.21,8.13c1.61-.31,14.41-1.41,14.72.2l30.53,158.86c.31,1.61,1.38,14.21-.24,14.52L55.55,202.21c-1.61.31-14.41,1.42-14.72-.2L10.29,43.16C10,41.54,8.92,28.94,10.53,28.63Z"/><path class="bd179c84-1ca3-4283-9b65-a3e5b3379ddf" d="M10.54,28.47,117.25,8c1.51-.29,14.52-1.52,14.81,0l30.53,158.88c.29,1.5,1.48,14.3,0,14.59L55.85,201.92c-1.5.29-14.51,1.53-14.8,0L10.51,43.07C10.22,41.56,9,28.76,10.54,28.47Z"/><path class="b2e090f3-3009-4d2e-ae75-b49fa1e19ae3" d="M10.54,28.31,117.3,7.79c1.4-.27,14.61-1.63,14.88-.23l30.54,158.88c.27,1.4,1.59,14.4.19,14.67L56.15,201.63c-1.4.27-14.61,1.64-14.88.24L10.73,43C10.46,41.58,9.14,28.58,10.54,28.31Z"/><path class="a4b737f2-24ca-48c9-bb7f-d4325ce045b8" d="M10.54,28.15,117.34,7.62c1.29-.25,14.72-1.74,15-.45l30.55,158.9c.24,1.29,1.7,14.5.4,14.74L56.45,201.34c-1.29.25-14.71,1.74-15,.45L11,42.89C10.7,41.6,9.25,28.4,10.54,28.15Z"/><path class="bbe7fef2-5b51-4049-acc4-9d2e4cc7b749" d="M10.54,28,117.39,7.45c1.18-.23,14.81-1.85,15-.67L163,165.7c.23,1.18,1.81,14.59.63,14.82L56.75,201.05c-1.18.23-14.81,1.85-15,.67L11.17,42.81C10.94,41.62,9.36,28.21,10.54,28Z"/><path class="b9fa427f-8888-4007-8327-0c141343807d" d="M10.54,27.83,117.43,7.28c1.08-.21,14.92-2,15.12-.88L163.1,165.32c.21,1.08,1.92,14.69.84,14.9L57.05,200.76c-1.07.21-14.91,2-15.12.89L11.38,42.72C11.18,41.64,9.47,28,10.54,27.83Z"/><path class="e9dd6c93-9b8e-461e-9c77-c6e7d5ed001f" d="M10.54,27.66,117.47,7.11c1-.19,15-2.07,15.21-1.1L163.23,165c.18,1,2,14.78,1.06,15L57.36,200.47c-1,.19-15,2.07-15.21,1.1L11.6,42.63C11.42,41.66,9.58,27.85,10.54,27.66Z"/><path class="fbf6b2c8-da66-4c47-9a0a-19d5adcec54f" d="M10.55,27.5l107-20.56c.86-.16,15.12-2.18,15.28-1.32l30.55,159c.17.86,2.14,14.87,1.28,15l-107,20.56c-.87.17-15.12,2.18-15.29,1.32l-30.55-159C11.65,41.68,9.68,27.67,10.55,27.5Z"/><path class="bcda9241-f5aa-4409-ad36-560644d9ca55" d="M10.55,27.34l107-20.57c.76-.14,15.22-2.29,15.37-1.54l30.55,159c.15.75,2.25,15,1.49,15.11L58,199.89c-.76.14-15.22,2.29-15.37,1.54L12,42.46C11.89,41.7,9.79,27.48,10.55,27.34Z"/><path class="be3dbb2d-b98d-4a5d-863b-81398cd6139f" d="M10.55,27.18,117.61,6.6c.64-.12,15.32-2.4,15.44-1.75l30.56,159c.12.65,2.35,15.07,1.71,15.19L58.26,199.6c-.65.12-15.32,2.4-15.45,1.76l-30.55-159C12.13,41.72,9.9,27.3,10.55,27.18Z"/><path class="bd166678-971f-4b39-a4ca-a24e22252ce9" d="M10.55,27,117.65,6.43c.54-.1,15.42-2.51,15.53-2l30.56,159c.1.54,2.46,15.16,1.92,15.26L58.56,199.31c-.54.1-15.42,2.51-15.53,2l-30.56-159C12.37,41.74,10,27.12,10.55,27Z"/><path class="a9ff75c8-0e77-46b3-95d9-baa8110932eb" d="M10.55,26.86,117.7,6.26c.43-.08,15.52-2.62,15.6-2.19l30.56,159c.09.43,2.57,15.25,2.14,15.34L58.86,199c-.43.08-15.52,2.62-15.6,2.19l-30.57-159C12.61,41.76,10.12,26.94,10.55,26.86Z"/><path class="f908795e-1cae-4451-b892-729c8602c00d" d="M10.55,26.69,117.74,6.09c.33-.06,15.62-2.73,15.69-2.41l30.56,159c.06.33,2.68,15.35,2.36,15.42L59.16,198.73c-.32.06-15.62,2.73-15.68,2.41l-30.57-159C12.85,41.78,10.23,26.76,10.55,26.69Z"/><path class="a6d09db2-6b94-467f-a750-2d653c597a45" d="M10.56,26.53,117.79,5.92c.21,0,15.72-2.84,15.76-2.62l30.57,159c0,.22,2.79,15.45,2.57,15.49L59.46,198.44c-.22,0-15.72,2.84-15.76,2.62L13.13,42C13.09,41.8,10.34,26.57,10.56,26.53Z"/><path class="b841b422-4104-47e0-bdd3-679213fea10a" d="M10.56,26.37,117.83,5.75c.11,0,15.82-2.95,15.84-2.84L164.25,162c0,.11,2.89,15.54,2.78,15.56L59.76,198.15c-.11,0-15.82,2.95-15.84,2.84L13.35,41.93C13.33,41.82,10.45,26.39,10.56,26.37Z"/><rect class="bf87ec9a-0865-46b7-a038-57687f687e07" x="26.22" y="12.77" width="125.5" height="177.91" transform="translate(-17.6 18.62) rotate(-10.88)"/><g id="ba886dfc-11e6-4ab6-ab2d-605b12036a15" data-name="Design 02"><rect class="be00ec29-db39-4d49-bebe-feadabf167c4" x="26.22" y="12.74" width="125.8" height="177.9" transform="translate(-17.59 18.65) rotate(-10.88)"/></g><g class="e1f31bdb-c04d-4595-baf9-9214a3a119bd"><path class="aa672d5b-3ce3-481e-a782-77bde2838c60" d="M37.56,21C38.3,25.34,39.5,32,41.2,40c8.34,39.27,14,42.22,18.81,67.54s.73,30,7.5,69.33c1.39,8.05,2.72,14.63,3.63,18.88l-21.3,4.09L16.26,25.11Z"/></g><g class="f969c51e-b664-4e3e-91e0-17b38ebd3e8a"><path class="a5e1abce-9d52-4f97-96a0-eba7fa34bde7" d="M29,22.66c.77,4.31,2,10.93,3.64,19,8,39.33,11.7,42.66,16.55,68s2.68,29.64,9.76,68.9c1.45,8,2.76,14.62,3.63,18.88l-12.76,2.45L16.26,25.11Z"/></g><circle class="ff2862a6-723b-4b88-9b69-59b2c9d35665" cx="94.12" cy="94.59" r="45.11"/><text class="a09b2a07-83dd-4baa-b7c6-6152f6983c36" transform="translate(64.77 91.51) rotate(-10.88)"><tspan class="ba2bcfb5-8ff8-4cce-9b07-da7ff04e616d">T</tspan><tspan x="6.53" y="0">ODO </tspan><tspan class="e98f65ba-518f-4c44-89f4-c969e472615d" x="31.31" y="0">a</tspan><tspan x="38.53" y="0">sia</tspan><tspan class="b53e8eac-676d-4278-acb1-b7d1a708dbb2" x="-10.1" y="18.67">a</tspan><tspan x="-2.86" y="18.67">c</tspan><tspan class="e0fcb455-c47c-4626-a4d8-31fb1b8167bd" x="4.09" y="18.67">ua</tspan><tspan x="18.58" y="18.67">cu</tspan><tspan class="b42ba42a-1bf4-4712-aad4-173a722a9ce1" x="32.83" y="18.67">l</tspan><tspan x="37.65" y="18.67">tura</tspan></text></g></g></svg>