<svg xmlns="http://www.w3.org/2000/svg" xmlns:xlink="http://www.w3.org/1999/xlink" viewBox="0 0 44 32"><defs><style>.abb2a9c4-3880-472e-925c-cb237ebe2490{fill:none;}.f04156b1-ee87-4930-ba16-e10828e54b73{isolation:isolate;}.e1dc765f-9d91-4d2a-a4a4-ad0d5389d1f9{clip-path:url(#b7cb7600-9d5c-4791-af66-73e2db4fe730);}.e39092d7-a008-47b4-a6c1-86e134071c2b{fill:#ad3405;}.f19eb522-1a6b-4a06-a3d0-29d143512540{opacity:0.3;mix-blend-mode:multiply;}.b89ee748-bb78-43d9-8dd0-8a463767f752{fill:#03a09a;}</style><clipPath id="b7cb7600-9d5c-4791-af66-73e2db4fe730"><rect class="abb2a9c4-3880-472e-925c-cb237ebe2490" x="85" y="243.46" width="331.91" height="378.54"/></clipPath></defs><g class="f04156b1-ee87-4930-ba16-e10828e54b73"><g id="e1c28e64-3183-4686-b93f-d9e2888eeb52" data-name="Capa 1"><g class="e1dc765f-9d91-4d2a-a4a4-ad0d5389d1f9"><ellipse class="e39092d7-a008-47b4-a6c1-86e134071c2b" cx="250.92" cy="120.12" rx="212.89" ry="214.79"/></g><path class="b89ee748-bb78-43d9-8dd0-8a463767f752" d="M43.71,10.86a9.33,9.33,0,0,0-9.33-9.33H10.14A9.33,9.33,0,0,0,.81,10.86V22.2a9.33,9.33,0,0,0,9.33,9.33H34.38a9.33,9.33,0,0,0,9.33-9.33ZM28.37,17.07l-9.66,5.3c-.42.22-.8-.08-.8-.56V11c0-.48.4-.79.81-.55L28.45,16A.64.64,0,0,1,28.37,17.07Z"/></g></g></svg>